<?xml version="1.0" encoding="UTF-8"?>
<svg xmlns="http://www.w3.org/2000/svg" viewBox="0 0 1920 1080">
  <g id="_01-sun" data-name="01-sun">
    <path d="M952.75194,446.25863c6.37552-.73752,11.8548,1.55336,17.75919,1.81426,2.64963.11708,4.94998-1.30784,7.99226-1.12205,6.05295.36966,15.68754,3.52933,22.07563,4.97013,40.40868,9.11398,74.11972,36.30546,92.84255,73.15745,36.39883,71.64351,1.46875,163.7737-71.72813,195.115-18.14617,7.76979-39.63956,11.80722-59.14789,10.76011-4.41677-.23707-8.51726.93837-12.0582.97215-3.0414.02901-8.01924-3.47672-11.00699-3.90605-5.23991-.75296-12.99271-.19156-17.78958-1.21042-3.32415-.70605-8.96516-4.88553-12.67934-6.32066-4.25504-1.64411-10.41767-2.2748-14.38028-4.61972-2.96484-1.75449-5.73947-6.02463-8.69882-8.30118-5.66527-4.35815-15.12568-7.35265-19.97409-12.02591-3.5616-3.43294-6.64591-10.07445-9.95912-14.04088-4.19178-5.01823-11.35914-9.9446-14.85004-15.14996-3.65437-5.44911-5.17345-13.9604-7.95656-20.04344-3.49146-7.63127-11.19751-16.58187-12.12429-24.87571-.60203-5.38757-.38978-11.31931-1.13319-16.86681-1.21271-9.04955-4.61737-17.70794-2.71143-26.84371,1.10359-5.28986,3.45108-10.98781,4.52796-16.46965,1.46274-7.44608,1.28763-15.98806,4.05972-22.94028,1.78802-4.48426,5.21815-8.41828,7.37769-12.62231,2.90261-5.65057,6.07946-15.0656,9.35311-19.64689,4.37596-6.12391,16.059-16.86764,21.93206-23.06794,7.48719-7.90437,15.15745-9.63242,23.84701-15.15299,3.73574-2.37336,7.95533-6.96038,11.3847-8.6153,4.3896-2.11829,11.55006-2.58455,16.57018-4.42982,3.48044-1.27932,8.39307-4.94089,11.41449-5.58551,3.06822-.6546,6.55634.10182,9.74403-.25597,5.07824-.56999,10.29619-2.0951,15.31735-2.67595Z" fill="#ffb5e1"/>
    <rect width="1920" height="1080" fill="none"/>
  </g>
</svg>
