<?xml version="1.0" encoding="UTF-8"?>
<svg id="Vrstva_1" data-name="Vrstva 1" xmlns="http://www.w3.org/2000/svg" viewBox="0 0 1920 1080">
  <g id="_05-tree" data-name="05-tree">
    <path d="M1381,743c-6.98691-3.21821-13.71628-6.93491-21.04124-9.45875-2.18204-.75183-13.40297-3.08068-13.86151-3.63119-.66012-.79252.40601-4.27733-.14201-4.87175-1.5494-1.68062-39.87771-3.00671-45.19181-6.30174-5.26556-2.57862-7.49558-9.2334-11.75266-12.73551-2.58685,14.15639-2.61832,29.09892-2.05202,43.54019.41577,10.60273,2.42734,21.40281,3.0313,31.9687,3.02581,52.93459,5.1966,105.7508,7.81361,158.77396-.28364.86917-.63821,2.15793-1.28655,2.73703-1.72308,1.53907-24.00775,2.43301-28.01708,2.41783-5.7162-.02164-37.51288-2.91022-40.53117-5.90763-1.62829-1.61703-1.10714-15.64292-1.0101-19.07239,1.89973-67.13608,15.29259-137.23839,23.05183-203.97482.07099-9.33205-12.14859-23.68802-12.99541-31.08248-.76306-6.66313,6.00293-20.28072,5.49598-22.50753-1.15389-5.06851-9.79045-8.16229-7.51632-14.88913-5.80859,1.88319-26.10495,12.98788-30.9936,10.53645-6.80435-7.14887-12.85586-15.3261-19.4871-22.55538-6.45477-7.0369-14.45688-14.23914-20.49213-21.50787-1.4694-1.76972-7.94443-10.11366-8.50132-11.51183-3.15077-7.91058,12.24974-2.21545,14.95639-1.91715,2.4422.26915,12.10442-.13507,13.30044-2.26188.46083-.81946.49819-5.22688.11249-5.68476-.57436-.68184-15.39652-4.22208-17.3443-4.13447-15.94086.71698-38.8362,10.59242-56.19686,11.94687-1.8675.1457-3.3055.43172-4.94281-.82819-1.14725-.88281-8.23991-23.46811-9.72171-27.2709-5.45304-13.99424-12.86142-28.37823-17.13045-42.86003-1.72566-5.85394.21716-9.51166-3.56604-14.46808l72.72965-61.34762c3.73584-1.02754,6.79191,4.19838,10.01548,5.62709,2.64404,1.17186,5.51176.93828,7.98112,2.01887,7.84639,3.43359,30.48211,16.83413,36.79958,17.27934,5.92017.41722,31.21704-7.36201,38.46622-9.58537,12.03868-3.69233,22.09076-6.57617,34.5323-7.96513,1.3309-.14858,3.19306-2.57518,5.32511-1.33957.27221.15775,2.90039,4.99257,2.99384,5.5344.80982,4.69525-14.53604,25.37664-17.69445,30.92712-1.33651,2.34873-1.42814,5.33244-2.92903,8.07097-1.54056,2.81093-6.24177,7.29734-6.96789,10.03211-1.71718,6.46741.24009,19.86729-1.24372,27.26417,4.73154,1.04711,10.98768-2.20907,15.35172-.84735,3.58402,1.11833-.33224,4.98321-.13389,6.37761.17799,1.25125,19.33536,9.63445,22.48418,11.26769,11.83377,6.13797,17.26633,7.79448,30.09031,11.95027,1.23875.40144,3.24755-.08285,4.03113.4132,4.39208,2.78043-5.78886,14.19388-7.0337,17.12043-.37039.87077-2.7952,8.72256-2.79648,9.20351-.00305,1.14469,5.64162-.75768,6.80875,3.21251.86296,3.37636.44518,21.68081,1.3656,23.1388.55236.87495,10.7737,5.14595,12.35421,2.17195l15.96859-39.00422,4.28493,4.72021,15.3614,44.1331c2.95455,1.90361,59.6656-10.42661,69.39694-10.87232,15.07679-.69054,8.09072,10.38353,7.46271,18.50314-.29979,3.87596-.64656,16.68878.22591,19.78709,1.39208,4.94357,18.71289,16.14711,20.75719,23.22635-4.0544,4.6262-18.52912,3.6239-20.89639,7.07325-2.93061,4.27019.34781,19.43796-2.08102,25.42535-1.24234,1.23012-30.55448-6.0953-33.98039,1.49415-.04317,1.71415,15.48136,9.34911,5.46732,10.5709-4.19456.51177-3.35821-1.66844-3.69388-1.83336-1.3218-.64941-6.63085,1.8607-6.41771,4.26455.1793,2.02219,8.97756,15.80531,10.65078,18.9746.63333,1.1996,1.37679,1.8801.97156,3.51967-1.48935,1.44607-26.15478-3.38664-29.50846-5.70997-1.85058.13404-7.2669,9.88538-10.48739,9.71493v-17Z" fill="#a0de92"/>
    <rect width="1920" height="1080" fill="none"/>
  </g>
</svg>
