<?xml version="1.0" encoding="UTF-8"?>
<svg id="Vrstva_1" data-name="Vrstva 1" xmlns="http://www.w3.org/2000/svg" viewBox="0 0 1920 1080">
  <g id="_05-tree" data-name="05-tree">
    <path d="M1339.33854,722.91146c-6.2955-2.89974-12.35894-6.24865-18.95903-8.52273-1.96611-.67743-12.07664-2.77582-12.4898-3.27185-.5948-.7141.36583-3.85405-.12795-4.38965-1.39607-1.51431-35.93148-2.70917-40.7197-5.67813-4.74449-2.32344-6.75383-8.31968-10.58964-11.47522-2.33086,12.75549-2.35922,26.21934-1.84896,39.23153.37463,9.5535,2.18713,19.28482,2.73132,28.80513,2.72638,47.69627,4.68235,95.28588,7.04039,143.06196-.25557.78316-.57505,1.94438-1.15924,2.46618-1.55257,1.38677-21.63198,2.19224-25.24456,2.17857-5.15054-.0195-33.80067-2.62223-36.52027-5.32302-1.46716-1.45701-.99758-14.09492-.91014-17.18501,1.71173-60.49241,13.77926-123.6575,20.77066-183.78982.06397-8.40857-10.94639-21.34389-11.70941-28.00661-.68755-6.00376,5.40889-18.27378,4.9521-20.28022-1.03971-4.56694-8.8216-7.35456-6.77252-13.41573-5.23378,1.69684-23.52165,11.70262-27.92652,9.49378-6.131-6.44143-11.58366-13.80946-17.55869-20.32334-5.81602-6.34054-13.02625-12.83006-18.46426-19.37949-1.32399-1.59459-7.15826-9.11283-7.66004-10.37264-2.83898-7.12776,11.03753-1.99621,13.47633-1.72743,2.20053.24252,10.90658-.1217,11.98425-2.03805.41522-.73837.44889-4.70964.10136-5.1222-.51752-.61437-13.87291-3.80427-15.62793-3.72533-14.36338.64603-34.99303,9.54421-50.63571,10.76463-1.6827.13128-2.9784.389-4.45368-.74623-1.03372-.79545-7.4245-21.14574-8.75967-24.57221-4.91341-12.6094-11.58868-25.56997-15.43525-38.61867-1.55489-5.27465.19567-8.5704-3.21315-13.03634l65.53244-55.27676c3.36615-.92586,6.11979,3.78291,9.02437,5.07024,2.38239,1.05589,4.96633.84543,7.19132,1.81909,7.06993,3.09381,27.46565,15.16825,33.15795,15.56941,5.33432.37593,28.12785-6.63347,34.65967-8.63682,10.84735-3.32694,19.90469-5.9254,31.11504-7.17692,1.19919-.13388,2.87708-2.32034,4.79815-1.20701.24527.14214,2.61337,4.49851,2.69758,4.98672.72968,4.23061-13.09758,22.86541-15.94344,27.86663-1.20425,2.11631-1.28682,4.80475-2.63917,7.27228-1.38811,2.53276-5.62409,6.57521-6.27836,9.03935-1.54725,5.82741.21633,17.90126-1.12064,24.56616,4.26332.94349,9.90036-1.99046,13.83254-.7635,3.22935,1.00766-.29936,4.49008-.12064,5.74649.16038,1.12743,17.42196,8.68104,20.25919,10.15266,10.66272,5.53056,15.55769,7.02315,27.11263,10.76769,1.11617.36171,2.92617-.07465,3.63221.37231,3.95745,2.50529-5.21601,12.78928-6.33766,15.42622-.33374.7846-2.51859,7.85939-2.51975,8.29274-.00275,1.03141,5.08334-.6827,6.13497,2.8946.77756,3.04224.40113,19.53531,1.23047,20.84902.4977.78837,9.70755,4.63672,11.13166,1.95702l14.38836-35.14443,3.8609,4.2531,13.84126,39.76576c2.66218,1.71523,53.76119-9.39481,62.52954-9.79641,13.58481-.62221,7.29008,9.356,6.72421,16.6721-.27012,3.4924-.58257,15.03728.20356,17.829,1.25432,4.45437,16.86109,14.54922,18.70309,20.92791-3.65318,4.1684-16.69551,3.26529-18.82852,6.37329-2.6406,3.84762.31339,17.51441-1.87508,22.9093-1.1194,1.10839-27.53086-5.49212-30.61775,1.34629-.0389,1.54452,13.94935,8.42394,4.92628,9.52482-3.77948.46112-3.02588-1.50333-3.32834-1.65193-1.191-.58515-5.97467,1.67657-5.78262,3.84253.16156,1.82208,8.08916,14.24125,9.5968,17.0969.57065,1.08089,1.24055,1.69405.87542,3.17137-1.34196,1.30297-23.56654-3.05151-26.58836-5.14492-1.66745.12077-6.54778,8.90714-9.44957,8.75356v-15.31771Z" fill="#a0de92"/>
    <rect width="1920" height="1080" fill="none"/>
  </g>
</svg>
