<?xml version="1.0" encoding="UTF-8"?>
<svg xmlns="http://www.w3.org/2000/svg" viewBox="0 0 1920 1080">
  <g id="_03-cloud-rain" data-name="03-cloud-rain">
    <path d="M1352.23344,228.13694c.61604.74566,2.53062.62151,3.4889,1.49504,3.49381,3.18484,5.47559,10.46736,8.78485,13.71698,2.11825,2.08008,8.70237,5.20046,10.19099,7.29994,1.06152,1.49712,1.41364,6.58464,2.43367,7.55149.13271.12579,2.58298-.7916,3.64207.33958,1.12201,1.19839,1.05447,4.6415,1.23492,4.8123.45367.4294,5.26894-1.67622,6.73752-1.76823,6.0232-.37736,15.30782,2.41263,21.54199-.22328,1.81544-.7676.37982-6.68224,4.18676-4.98615,2.21973.98895,3.81464,11.76126,7.55086,13.4435,4.0019,1.74817,21.93143,3.24772,23.98466,5.01294,1.29405,1.11253,1.56303,5.97886.77099,7.30518-.20701.34665-1.93147.83255-2.77163,1.66889-7.29624,7.26303-12.94573,8.98795-23.6366,10.40978-5.01619.66713-9.4834-.64544-14.60363,1.19462-3.65682,1.31415-12.80105,3.027-17.34375,3.00572-1.85618-.00869-1.2355-1.96251-2.03845-2.04591-6.89361-.71594-15.65443,4.62528-22.44049,2.51453-1.58852-.49409-2.53288-2.34179-4.38575-2.44937-2.24601-.1304-6.94648,1.69796-10.03606,1.9463-2.8974.23289-5.82731-.9366-7.89373-.74685-3.22711.29632-13.18366,4.54768-18.44443,5.46821-1.82177.31877-9.20734,1.79876-9.71213,1.82592-2.37833.12794-11.83008-5.38197-13.00441-5.33972-.3275.01178-4.4275,3.43244-5.1207,4.08912-6.84318,6.48274-8.72933,13.30995-18.13288,17.35948-12.22022,5.2625-19.2609,5.56048-28.21788-4.46651-.58917-.65956-.51487-2.23623-1.25018-2.98786-1.76444-1.80362-6.33122-1.70252-7.76422-2.77437-.96974-.72535-.65886-2.536-1.70781-3.52775-3.739-3.53516-7.44993-4.17051-12.29311-2.467-3.24302,1.14068,3.53642,1.54435-.4845,3.49356-.94164-.12004-1.33262-2.81851-1.53542-2.95745-2.0048-1.37355-10.98358,6.80297-12.51863,7.00367-2.21593.28973-4.58723-1.18954-6.94548-1.11372-14.26125.45854-20.18426-.12881-33.75117-4.16129-5.65946-1.68215-10.57769-9.59694-17.74845-7.75765,1.22322-3.38175,6.64879-2.82451,8.70863-4.28686,2.85005-2.02334,6.04241-7.94748,8.29399-10.19385,4.11148-4.10196,26.63433-18.30217,31.48206-18.33846,4.21993-.03159,9.29993,3.70569,14.50142,1.32546,1.18508-.5423,2.24116-2.56169,3.50747-3.4866,1.37754-1.00616,3.45724-1.15417,4.56913-2.42982,1.1866-1.36137,3.59755-8.99251,4.07518-9.40848.94324-.82149,5.11249.66735,6.93138-.6097.89352-.62734.50012-2.63252,1.61354-3.60495,3.31406-2.8944,14.45141-6.64256,16.31024-8.43619,1.80598-1.74263,1.78999-5.90657,5.06318-8.93268,1.45602-1.34612,5.12979-3.63618,7.04747-4.95024,22.2943-15.27676,49.64819-27.2151,76.5899-14.79071,4.07284,1.87822,6.66344,7.07949,8.80786,11.18382.86159,1.64905,1.03169,4.92815,1.73185,5.77563Z" fill="#c300ff"/>
    <rect width="1920" height="1080" fill="none"/>
  </g>
</svg>
