<?xml version="1.0" encoding="UTF-8"?>
<svg id="Vrstva_1" data-name="Vrstva 1" xmlns="http://www.w3.org/2000/svg" viewBox="0 0 1920 1080">
  <g id="_03-cloud-rain" data-name="03-cloud-rain">
    <path d="M1313.41867,258.99839c.55508.67187,2.2802.56001,3.14364,1.34709,3.14807,2.86967,4.93374,9.43153,7.91552,12.35957,1.90863,1.87424,7.8412,4.68583,9.18251,6.57755.95647,1.34897,1.27375,5.93303,2.19283,6.8042.11958.11334,2.32738-.71326,3.28166.30597,1.01098,1.0798.95012,4.18218,1.11271,4.33608.40877.38691,4.74754-1.51034,6.07078-1.59325,5.42715-.34002,13.79298,2.17388,19.41023-.20119,1.63579-.69164.34223-6.02097,3.77244-4.49273,2.00007.89108,3.43715,10.59739,6.80364,12.11316,3.60588,1.57518,19.76113,2.92633,21.61118,4.51687,1.16599,1.00244,1.40836,5.3872.6947,6.58227-.18653.31235-1.74033.75016-2.49736,1.50374-6.57421,6.5443-11.66465,8.09851-21.29756,9.37964-4.5198.60111-8.54494-.58156-13.15848,1.07641-3.29494,1.1841-11.53428,2.72745-15.62744,2.70828-1.6725-.00783-1.11324-1.76831-1.83673-1.84345-6.21143-.6451-14.1053,4.16757-20.21981,2.2657-1.43132-.4452-2.28223-2.11005-3.95175-2.20698-2.02375-.11749-6.25907,1.52993-9.0429,1.7537-2.61068.20985-5.25065-.84391-7.11258-.67294-2.90776.267-11.87903,4.09765-16.6192,4.92709-1.64149.28723-8.2962,1.62076-8.75103,1.64523-2.14297.11528-10.65939-4.84938-11.71752-4.81131-.29509.01062-3.98937,3.09277-4.61396,3.68447-6.16599,5.84122-7.86549,11.99282-16.33848,15.64162-11.01093,4.74173-17.35488,5.01022-25.42548-4.02451-.53087-.59429-.46392-2.01494-1.12646-2.69219-1.58984-1.62513-5.70469-1.53404-6.99589-2.49982-.87378-.65357-.59366-2.28504-1.5388-3.17865-3.369-3.18532-6.71269-3.7578-11.0766-2.22287-2.92209,1.0278,3.18646,1.39152-.43655,3.14784-.84846-.10816-1.20074-2.53959-1.38348-2.66479-1.80641-1.23763-9.89666,6.12976-11.27981,6.3106-1.99664.26105-4.13329-1.07183-6.25816-1.00351-12.84998.41316-18.18686-.11607-30.41121-3.7495-5.09941-1.51569-9.53094-8.64724-15.9921-6.98996,1.10217-3.0471,5.99083-2.545,7.84684-3.86264,2.56801-1.82312,5.44447-7.16101,7.47323-9.18508,3.70462-3.69604,23.99864-16.49102,28.36665-16.52371,3.80233-.02846,8.37962,3.33898,13.06638,1.19429,1.06781-.48864,2.01938-2.30819,3.16038-3.14158,1.24122-.90659,3.11512-1.03996,4.11698-2.18937,1.06918-1.22665,3.24154-8.10262,3.67191-8.47744.8499-.7402,4.60657.60131,6.24546-.54937.8051-.56526.45063-2.37201,1.45386-3.24821,2.98611-2.60797,13.02132-5.98522,14.69621-7.60136,1.62726-1.57018,1.61286-5.32206,4.56214-8.04872,1.31194-1.21291,4.62215-3.27635,6.35007-4.46037,20.08809-13.765,44.73509-24.52194,69.01069-13.32705,3.6698,1.69236,6.00404,6.37891,7.93625,10.07708.77633,1.48586.9296,4.44047,1.56047,5.20408Z" fill="#c300ff"/>
    <rect width="1920" height="1080" fill="none"/>
  </g>
</svg>
