<?xml version="1.0" encoding="UTF-8"?>
<svg id="Vrstva_1" data-name="Vrstva 1" xmlns="http://www.w3.org/2000/svg" viewBox="0 0 1920 1080">
  <g id="_10-cloud-center2" data-name="10-cloud-center2">
    <path d="M908.94954,132.39631c1.50882.96658,3.27501,1.28932,4.42659,2.10815,6.9649,4.95234,12.26138,13.2667,18.71676,19.37399.77417.73243,3.06747.25998,4.5483,1.7595,1.13165,1.14593,1.23921,4.72074,2.58774,5.50709.68879.40165,2.52404-.78701,2.74488-.48802.69649.94297-2.51921,14.86308.15287,16.97236,1.4581,1.15098,25.5108.64748,31.57771,3.77934,2.49108,1.28595,4.37855,8.08362,6.08334,10.37387,3.82381,5.137,1.98111.57885,5.67348,8.74349,3.23217,7.14705,6.56207,4.03359,6.96795,4.27807.24091.14512.13367,3.16753,1.52507,3.6467.60793.20936,11.4192,2.35799,12.61286,2.50612,1.47572.18313,2.32164-2.72569,3.93645-.34016,2.91704,15.50172,3.16334,32.91665,14.36605,45.1099-4.79824-.61736-4.40629,4.70393-7.57186,6.03303-9.42887,3.95881-9.06847-4.67535-13.23875-6.03056-4.88328-1.5869-10.96678,1.8779-15.47129-2.22082-1.83435-1.6691-2.30229-6.02585-2.57706-6.22309-.86221-.61892-5.64486.32919-7.94189-1.52332-2.28164-1.84009-1.02655-5.43844-3.34513-6.56074-6.21166-3.00672-5.74581,1.37735-7.94184,2.57836-7.88184,4.31058-46.15288,2.06048-52.53129-2.90024-1.08614-.84473-.29776-3.78882-3.38022-4.38766-1.91156-.37136-3.97896,5.03796-4.25859,5.22619-6.35112,4.27508-16.32649,2.21722-22.52568,3.98556-1.60428.45763-2.24138,2.60617-4.02806,3.24995-7.94375,2.8623-9.05073-2.59799-14.33672-3.95575-3.04264-.78153-6.31585.81307-8.76752.50737-3.31529-.41338-10.82354-3.62708-13.52836-2.7176-.91509.30769-2.26387,8.12952-3.7155,8.15607-.68623.01255-.9983-2.52347-1.96326-2.75184-.93683-.22171-16.76092,5.12912-18.2447,5.98994-2.77323,1.60891-2.94437,4.73318-7.5249,6.89177-5.46,2.57303-13.064,1.91628-18.71926,4.85719-3.88076-2.55586-7.82544-4.83577-11.94153-7.0315-2.13404-1.13841-5.7295-1.00128-6.07241-1.22286-2.79605-1.80666-10.32718-12.43395-16.1248-14.42348-5.31593-1.82423-8.81814.49201-11.95246.34669-3.58025-.166-6.469-3.30685-9.26222-3.52018-6.45071-.49266-11.29737,4.91466-20.58043,1.79617-4.18862-1.4071-13.55593-9.71465-16.86321-12.94798-2.37688-2.32373-6.89775-9.80238-7.42559-10.14366-6.6238-4.28268-35.90623-3.55516-25.88389-20.08042,2.68315,17.71308,10.60619,8.49834,19.85411,4.97646,10.13655-3.8603,28.6293-10.35405,36.86993-17.19257,3.60232-2.9894,7.60885-11.05526,11.30968-14.82053,11.66953-11.87273,27.71652-13.84682,43.74966-12.07703,1.99704-1.55563.02007-7.15137,1.06585-9.34397.59663-1.25091,19.33271-17.94468,20.55837-18.59158,6.57892-3.4723,22.68941-5.92589,30.2024-5.95352,10.35978-.0381,20.14781,5.35994,29.71628,4.57116,3.98091-.32817,7.51571-3.52973,8.77542-3.4738,13.12718.5828,28.57866.47596,39.69668,7.5984Z" fill="#00eaff"/>
    <rect width="1920" height="1080" fill="none"/>
  </g>
</svg>
