<?xml version="1.0" encoding="UTF-8"?>
<svg xmlns="http://www.w3.org/2000/svg" viewBox="0 0 1920 1080">
  <g id="_10-cloud-center2" data-name="10-cloud-center2">
    <path d="M903.34285,87.63059c1.67452,1.07273,3.63469,1.43092,4.91275,2.33968,7.72983,5.49624,13.60801,14.72373,20.77236,21.50177.8592.81287,3.40436.28853,5.04783,1.95274,1.25593,1.27178,1.3753,5.23921,2.87194,6.11192.76444.44576,2.80125-.87344,3.04634-.54162.77299,1.04654-2.79588,16.49545.16966,18.83637,1.61824,1.27739,28.31257.71859,35.04578,4.19442,2.76466,1.42718,4.85943,8.97141,6.75145,11.5132,4.24377,5.70118,2.19869.64242,6.29658,9.70376,3.58715,7.93199,7.28275,4.47658,7.73321,4.74792.26737.16105.14836,3.51541,1.69256,4.0472.6747.23235,12.67333,2.61695,13.99809,2.78135,1.63779.20325,2.57662-3.02504,4.36878-.37752,3.23741,17.20422,3.51076,36.53178,15.94382,50.06417-5.32521-.68516-4.89021,5.22055-8.40345,6.69562-10.46441,4.39359-10.06443-5.18883-14.69271-6.69287-5.41959-1.76119-12.17123,2.08414-17.17045-2.46472-2.03581-1.85241-2.55515-6.68765-2.86009-6.90655-.9569-.6869-6.26482.36535-8.81413-1.69062-2.53222-2.04218-1.13929-6.03573-3.71252-7.28129-6.89387-3.33694-6.37686,1.52862-8.81406,2.86153-8.74748,4.784-51.2217,2.28677-58.30062-3.21877-1.20543-.9375-.33046-4.20493-3.75146-4.86954-2.1215-.41215-4.41596,5.59126-4.7263,5.80016-7.04864,4.74459-18.11957,2.46073-24.9996,4.42328-1.78048.50789-2.48754,2.89239-4.47045,3.60688-8.81618,3.17666-10.04474-2.88332-15.91128-4.3902-3.3768-.86737-7.0095.90237-9.73042.5631-3.6794-.45878-12.01225-4.02543-15.01414-3.01607-1.01559.34149-2.5125,9.02236-4.12356,9.05183-.7616.01393-1.10794-2.80062-2.17888-3.05407-1.03971-.24606-18.60172,5.69243-20.24845,6.6478-3.07781,1.78561-3.26774,5.25301-8.35134,7.64866-6.05965,2.85562-14.49878,2.12674-20.77513,5.39064-4.30697-2.83656-8.68489-5.36687-13.25303-7.80375-2.36842-1.26344-6.35875-1.11125-6.73933-1.35716-3.10313-2.00508-11.46138-13.79952-17.89573-16.00756-5.89976-2.02458-9.7866.54605-13.26516.38476-3.97345-.18423-7.17946-3.67003-10.27946-3.90679-7.15917-.54677-12.53812,5.45442-22.84071,1.99343-4.64864-1.56163-15.04473-10.78158-18.71524-14.37001-2.63793-2.57894-7.65531-10.87894-8.24112-11.2577-7.35127-4.75304-39.84969-3.94561-28.72663-22.28578,2.97783,19.65845,11.77104,9.43168,22.03462,5.523,11.24981-4.28426,31.77355-11.4912,40.91923-19.08077,3.99795-3.31772,8.44451-12.26942,12.55179-16.44821,12.95116-13.17667,30.76053-15.36757,48.55454-13.40341,2.21636-1.72648.02228-7.93678,1.18291-10.37019.66216-1.38829,21.45595-19.91548,22.81623-20.63343,7.30146-3.85366,25.18131-6.57671,33.51942-6.60737,11.49755-.04228,22.36058,5.9486,32.97992,5.0732,4.41812-.36421,8.34113-3.91739,9.73919-3.85532,14.56889.64681,31.71736.52824,44.05643,8.4329Z" fill="#00eaff"/>
    <rect width="1920" height="1080" fill="none"/>
  </g>
</svg>
