<?xml version="1.0" encoding="UTF-8"?>
<svg id="Vrstva_1" data-name="Vrstva 1" xmlns="http://www.w3.org/2000/svg" viewBox="0 0 1920 1080">
  <g id="_12-bird-orange" data-name="12-bird-orange">
    <path d="M960.90104,294.91667l-7.21804-30.63446c-2.23976.20622-4.62575,8.7562-7.19326,6.31071-.21307-.20294-.91225-5.22353-.87347-5.81977.24886-3.82697,4.74912-10.06927,3.67218-14.81074,4.25389-1.42906,8.87114-1.11984,12.97353.7937l29.72933,48.66151c1.19328-10.93295,7.95877-3.91385,12.12899-5.83178,3.73841-1.71933,8.34785-12.29283,13.11757-12.16618,3.7891.10061,7.02046,11.03038,10.38428,13.00247,1.84429,1.08124,17.6173,2.29778,18.92659,1.80759,2.75413-1.03112,25.94616-36.65148,28.71793-42.20358.21842-.92221,2.66339-.6505,2.76508-.55285,1.62304,1.55859-9.4637,38.53528-10.64769,43.72651.46622,2.73802,9.05904-.49347,11.55508,1.32774l-.16594,2.0648-26.97297,62.24404c-1.56714,3.54212-5.18743-.38124-5.76017-.32624-1.08992.10466-.53881,4.14232-4.04013,2.23728l-26.71505-22.83216-30.92059,14.75906c-2.28165-2.26192-6.9324,1.22917-8.10963.39341-1.68622-1.19713-6.43879-35.74474-9.27192-40.30641-15.164-6.46596-31.59096-9.00796-47.09478-14.62067-3.23765-1.1721-9.22662-2.97262-11.89354-4.32517-1.28397-.65118-2.3671-1.2234-2.05696-2.89882h54.96354Z" fill="#005eff"/>
    <rect width="1920" height="1080" fill="none"/>
  </g>
</svg>
