<?xml version="1.0" encoding="UTF-8"?>
<svg xmlns="http://www.w3.org/2000/svg" viewBox="0 0 1920 1080">
  <g id="_12-bird-orange" data-name="12-bird-orange">
    <path d="M961,268l-8.01078-33.99894c-2.48574.22887-5.13378,9.71786-7.98327,7.00379-.23647-.22523-1.01243-5.79721-.9694-6.45894.27619-4.24727,5.2707-11.17514,4.07548-16.43736,4.72108-1.58601,9.84543-1.24283,14.39837.88086l32.9944,54.00584c1.32434-12.13368,8.83285-4.34369,13.46108-6.47226,4.14898-1.90816,9.26467-13.64291,14.55823-13.50235,4.20525.11166,7.79149,12.24181,11.52475,14.43049,2.04684,1.19999,19.55215,2.55013,21.00523,2.00611,3.05661-1.14437,28.79574-40.67679,31.87193-46.83866.24241-1.02349,2.9559-.72195,3.06876-.61357,1.80129,1.72976-10.50306,42.76748-11.81709,48.52885.51742,3.03873,10.05396-.54766,12.82414,1.47357l-.18416,2.29157-29.93532,69.08009c-1.73925,3.93114-5.75715-.42311-6.39279-.36207-1.20963.11616-.59799,4.59725-4.48384,2.48299l-29.64907-25.33973-34.31649,16.38c-2.53223-2.51034-7.69377,1.36417-9.00028.43661-1.87141-1.3286-7.14594-39.67046-10.29022-44.73312-16.82941-7.1761-35.06048-9.99728-52.26704-16.2264-3.59323-1.30082-10.23995-3.29909-13.19976-4.80019-1.42498-.72269-2.62707-1.35776-2.28286-3.21719h61Z" fill="#005eff"/>
    <rect width="1920" height="1080" fill="none"/>
  </g>
</svg>
