<?xml version="1.0" encoding="UTF-8"?>
<svg id="Vrstva_1" data-name="Vrstva 1" xmlns="http://www.w3.org/2000/svg" viewBox="0 0 1920 1080">
  <g id="_14-cloud-right" data-name="14-cloud-right">
    <path d="M1759.6428,540.01045c-.66874-.98661-1.10122-2.12985-1.45099-3.28057-.39575-1.30185.14541-2.49992-.57415-3.7488-.67017-1.16348-.89664-2.33785-1.24487-3.61066-.35813-1.309-1.11035-2.459-1.49851-3.75892-.81327-2.72375-.15003-5.66841-.58658-8.44276-.08964-.56931-.23461-1.11613-.27278-1.69231-.02101-.31765.02541-.65241-.15069-.94146-.49265-.80903-1.11453-.31034-1.70925-.04455-1.21627.54357-2.63108-.13287-3.63078-.8169-1.16513-.79721-2.36952-1.31098-3.60076-1.97284-.45393-.24401-.99992-.52669-1.42416-.81052-.36715-.24577-.5901-.61941-.96132-.85254-1.03875-.65241-2.65077-.25221-3.81172-.25716-1.09034-.00462-2.56069-.36665-3.41069-1.15484-.50475-.4679-.56249-1.49961-.75013-2.13123-.19512-.65697-.48528-1.26967-.76927-1.8925-.56909-1.24795-1.12102-2.50652-1.71717-3.74165-.34306-.71087-.7189-1.41079-.93536-2.17435-.15751-.55529-.18588-1.14588-.41136-1.68065-.36297-.86084-1.19681-1.89585-1.89602-2.50399-.36143-.31446-.82009-.4839-1.21891-.74524-.74376-.48737-1.1769-1.08143-1.72894-1.74478-.70141-.84297-1.55219-1.04155-2.53011-1.43994-1.02401-.41725-1.98313-.90236-3.08677-1.00669-1.25191-.11835-2.5179-.52625-3.79071-.32227-.50662.08123-.96154.28119-1.43428.47032-.75035.30016-1.45924.36753-2.22038.5758-.7839.21459-1.2551.42-2.10687.41972-.6419-.00022-1.30691-.00335-1.93363-.14552-.58284-.13221-1.16018-.37617-1.6735-.68376-.89345-.53543-.91105-1.04513-1.1373-2.00513-.30434-1.29167-.63596-2.56228-.9799-3.84395-.4074-1.51803-.28334-3.00989-.28125-4.56405.00143-.98991-.18225-1.76628-.8235-2.54809-.3083-.376-.69789-.66143-.99574-1.04837-.42599-.55336-.8059-1.1615-1.20407-1.73752-.62607-.90572-1.3905-1.65717-2.06232-2.52802-.76102-.98639-1.67306-2.04445-2.75922-2.69185-.45954-.27382-.97012-.39553-1.40337-.71549-.5208-.38469-.93184-.92073-1.39347-1.37235-.91567-.89604-1.99567-1.7478-3.03024-2.50014-1.23519-.89824-2.5058-1.71734-3.71086-2.66688-1.13444-.89373-2.47193-1.65904-3.50771-2.66116-.862-.83395-1.42845-1.7935-2.42738-2.50366-1.11068-.78957-2.17627-1.56835-3.43478-2.10918-2.345-1.00779-4.84739-1.56494-7.39774-1.64177-3.03222-.09135-6.13527-.03751-9.16132.17593-1.32868.09366-2.65539.24066-3.96944.45998-1.51644.25309-2.90738.80727-4.39489,1.15001-.50266.11587-1.00751.19826-1.49587.37248-.57921.20667-.99893.5686-1.52986.84165-1.17085.6022-2.55937.77114-3.74682,1.33858-.78049.37292-.99123.82515-1.85136.43826-.61386-.27619-1.1516-.62106-1.70023-1.00905-.45316-.3204-.96473-.60077-1.37136-.97672-.46284-.42792-.77422-.98848-1.2529-1.40326-.76465-.66264-1.78262-.94361-2.72083-1.26137-1.38984-.47076-2.73084-.82603-4.20031-.93519-1.32945-.09877-2.67409-.07243-4.00618-.05533-1.53734.01974-3.02903.311-4.55569.38139-1.38225.06374-2.81378-.13006-4.16754.25391-.46647.13232-.88564.39338-1.36223.47703-.70207.12319-1.4709.01897-2.1865.08634-.99948.0941-1.98907.30033-2.90342.72605-1.25268.58333-2.07497,1.87506-3.46206,2.11578-2.20234.38222-4.63412.7525-6.26198,2.4507-1.83024,1.90938-3.30818,4.15808-4.95342,6.2105-1.51996,1.89607-2.75548,4.01515-3.17949,6.43048-.21393,1.21831-.44458,2.44124-.74233,3.64239-.05698.22922-.10955.53219-.20524.75684-.03916.12126-.07831.24258-.11758.36385-.22691.53862-.4624.59604-.70669.17219-.48407-.21349-.84517-.76465-1.3751-.99288-1.02357-.44084-2.21169-.40295-3.30257-.37534-1.35112.03421-2.61766-.1134-3.95922-.19914-2.7062-.17296-5.43507.15146-8.12917.35521-1.20813.0914-2.33235.01628-3.47163.49655-1.07241.45212-2.05913,1.11536-3.12362,1.59547-.86628.39069-1.87094.94306-2.56784,1.59992-.95626.90137-1.71695,2.16489-2.53352,3.20353-1.59332,2.02668-2.76461,4.36376-4.24013,6.47679-.6892.98689-1.40392,2.05985-2.37843,2.74426-.9226.64806-1.58254,1.57055-2.33257,2.39972-.42423.46911-.82416,1.11019-1.3718,1.44153-.42588.25771-.92359.33355-1.35112.59384-1.38753.84467-2.8581,1.41222-4.46385,1.7219-1.16403.22449-2.1986.67551-3.34019.96055-1.27666.31886-2.45334.76504-3.57678,1.43147-1.00806.59796-2.01964,1.08671-3.08875,1.56951-1.10452.49881-2.32135.807-3.37495,1.39028-2.27152,1.25774-5.20123,1.01972-7.39785,2.47737-.88652.58828-1.73488,1.30619-2.57719,1.9547-.58405.44953-1.13884.93629-1.66899,1.44797-.61595.5945-1.11728,1.34084-2.0478,1.46089-1.31461.16966-2.3836-.74651-3.01957-1.80967-.3633-.60748-.30016-1.26022-.54544-1.89569-.1971-.51047-.55919-.81167-.567-1.38742-.00825-.59846-.92491-.59923-.9292,0-.00286.39421.02211.68051.18918,1.03166.08744.18374.25463.33492.33877.5219.20491.45531.16972.94174.2951,1.41211.25056.94009,1.03369,1.94172,1.79482,2.52907.34075.26288.71252.41301,1.10364.50579.06401.18231.22262.32414.47692.31501,1.32736-.04768,2.18045.7861,3.44908.94119.80051.09784,1.37323.0165,2.18199.30676.53081.1905.87772.26684,1.44835.31177,1.25675.09888,2.13403.93222,3.30235,1.25873,1.37796.38513,2.5311.10158,3.76607,1.03463.6022.45487,1.23992.79903,1.47057,1.56923.17181.5736.03003,1.16298.11582,1.74186.13782.92991.85925,1.2022,1.52898,1.74071,1.70375,1.37021,3.21502,3.03722,5.2538,3.87859,1.29965.53631,1.22089,1.54586,1.72927,2.65566.1817.39685.44392.63728.76575.91578.65103.56326,1.11156,1.0476,1.61532,1.76931.56865.8147,1.25092,1.13686,2.12414,1.55961,1.00597.48693,1.67977,1.29756,2.7854,1.65508,1.09429.35384,2.45202.1717,3.60054.28411,1.37741.13485,2.37832-.05714,3.67203-.48451,1.20374-.39767,2.45444-.68519,3.69205-.95147,1.62049-.34861,3.07192-1.00218,4.74994-.96291,1.35959.03184,2.77121.29307,3.99738.92243,1.17943.60544,2.1337,1.25648,3.46734,1.50302,1.29492.23939,2.67596-.00236,3.94305.28966.45668.10526.91336.27278,1.36784.3947,1.00509.26959,1.50357.87074,2.09466,1.68362,1.48531,2.04247,3.67126,3.56704,5.32552,5.47142.60957.70174,1.33781,1.14462,2.22973,1.41662,1.36322.41576,2.67673.75497,3.98715,1.34188,1.20748.54077,2.44047,1.07373,3.49638,1.88419,1.07824.82768,1.98599,1.71618,3.24769,2.28109,2.09444.93778,4.37366.90357,6.50164.09894,1.30339-.49298,2.66276-.81987,3.97593-1.28557.67314-.23868,1.3289-.54225,2.02217-.72038.52223-.13424,1.11695-.125,1.59882-.38728.74761-.40702,1.18944-.62244,2.07783-.73798.51564-.06704.99299-.15998,1.48982-.33349,1.40007-.48902,2.86338-.95131,4.22946-1.52452.96792-.40608,1.69781-1.21655,2.63042-1.70084,1.29624-.67303,2.46742-1.48982,3.70195-2.26718,1.0283-.64757,1.97103-1.21275,3.08369-1.68676.44667-.19028.73859-.41433,1.08011-.76119.41532-.42187.91182-.74865,1.31978-1.17178.9876-1.0244,1.39446-1.96674,2.93399-2.32443,1.71728-.39905,3.53476.17708,5.19463.60511,2.58346.66621,5.23049.88097,7.84386,1.42207,1.20022.24847,2.38591.02546,3.59097.08772,1.19989.06198,2.23941.68964,3.41839.7971,2.09169.19072,4.75775.97221,6.56346-.53246.84539-.70454,1.3311-1.55367,2.36853-2.02223,1.2033-.54341,2.32828-1.14478,3.68798-1.20082,1.41833-.0584,2.50602-.21602,3.8545-.69987,1.30581-.46856,2.68773-.57734,3.98033-1.01912.76894-.26282,1.63534-.79875,2.24194-1.33737,1.047-.92975.72253-1.69132,1.0063-2.9484.41917-1.85708,1.88656-1.13681,2.77957-.22367.86035.87976,1.72619,1.76375,2.66034,2.56641.79765.68557,1.85312,1.30823,2.8273,1.70601,1.37961.56332,2.91596.54429,4.29326,1.18075,1.12355.51915,2.07068,1.0547,3.29311,1.33149,1.45539.32948,2.88076.77043,4.33461,1.10216,1.15963.26458,2.32267.39399,3.51287.35532,1.11057-.03602,2.46412-.04119,3.4955-.49892.54225-.2406.98408-.65444,1.51666-.91265.69536-.33718,1.40755-.32442,2.16417-.32101,1.53404.00682,3.06785-.00038,4.60178-.00088,1.069-.00027,2.4155.25028,3.44358-.06973.41125-.12808.68106-.40042,1.03501-.62365.75695-.47747,1.72861-.60467,2.59951-.62761,1.20198-.03162,2.46995-.02882,3.66906.04603,1.59035.09927,2.46445,1.40546,3.19863,2.61453.48704.80216,1.38401,1.77151,2.22753,2.20767.9942.5141,2.18606.07133,3.22833.45135,1.0426.38024,1.84036,1.74357,1.85213,2.80465.00693.61936-.16444,1.27171.43688,1.685.68073.46784,1.60707.06154,2.32432-.07815,1.47772-.28768,2.84138.56689,4.12233,1.23695.99475.52036,1.98555.83719,3.1102.91732.90863.06473,2.7282-.33674,3.44303.38805.40015.40553.23318,1.205.3567,1.71497.09228.38068.24671.75321.39498,1.1153.29301.7162.71186,1.60289,1.55988,1.75875.86848.15965,1.71981-.40927,2.43013-.81167.91842-.52042,2.06188-.4943,2.71764-1.44461,1.10232-1.59756.34812-3.82541-.61287-5.2433Z" fill="#0016a3"/>
    <rect width="1920" height="1080" fill="none"/>
  </g>
</svg>
