<?xml version="1.0" encoding="UTF-8"?>
<svg xmlns="http://www.w3.org/2000/svg" viewBox="0 0 1920 1080">
  <g id="_14-cloud-right" data-name="14-cloud-right">
    <path d="M1847.46484,540.0116c-.74219-1.09497-1.22217-2.36377-1.61035-3.64087-.43921-1.44482.16138-2.77448-.63721-4.16052-.74377-1.29126-.99512-2.5946-1.38159-4.0072-.39746-1.45276-1.2323-2.72906-1.66309-4.17175-.90259-3.02289-.1665-6.29095-.651-9.37-.09949-.63184-.26038-1.23871-.30273-1.87817-.02332-.35254.0282-.72406-.16724-1.04486-.54675-.89789-1.23694-.34442-1.89697-.04944-1.34985.60327-2.92004-.14746-4.02954-.90662-1.29309-.88477-2.62976-1.45496-3.99622-2.18951-.50378-.27081-1.10974-.58453-1.58057-.89954-.40747-.27277-.65491-.68744-1.06689-.94617-1.15283-.72406-2.94189-.27991-4.23035-.2854-1.21008-.00513-2.84192-.40692-3.78528-1.28168-.56018-.51929-.62427-1.66431-.83252-2.3653-.21655-.72913-.53857-1.40912-.85376-2.10034-.63159-1.38501-1.24414-2.7818-1.90576-4.15259-.38074-.78894-.79785-1.56573-1.03809-2.41315-.1748-.61627-.2063-1.27173-.45654-1.86523-.40283-.95538-1.32825-2.10406-2.10425-2.77899-.40112-.349-.91016-.53705-1.35278-.82709-.82544-.54089-1.30615-1.2002-1.91882-1.9364-.77844-.93555-1.72266-1.15594-2.80798-1.59808-1.13647-.46307-2.20093-1.00146-3.42578-1.11725-1.3894-.13135-2.79443-.58405-4.20703-.35767-.56226.09015-1.06714.31207-1.5918.52197-.83276.33313-1.61951.4079-2.46423.63904-.87.23816-1.39294.46613-2.33826.46582-.7124-.00024-1.45044-.00372-2.146-.1615-.64685-.14673-1.2876-.41748-1.8573-.75885-.99158-.59424-1.01111-1.15991-1.26221-2.22534-.33777-1.43353-.70581-2.84369-1.08752-4.26611-.45215-1.68475-.31445-3.34045-.31213-5.06531.00159-1.09863-.20227-1.96027-.91394-2.82794-.34216-.4173-.77454-.73407-1.1051-1.16351-.47278-.61414-.89441-1.28906-1.3363-1.92834-.69482-1.00519-1.54321-1.83917-2.28882-2.80566-.8446-1.09473-1.85681-2.26898-3.06226-2.98749-.51001-.30389-1.07666-.43896-1.5575-.79407-.578-.42694-1.03418-1.02185-1.54651-1.52307-1.01624-.99445-2.21484-1.93976-3.36304-2.77472-1.37085-.99689-2.78101-1.90594-4.11841-2.95978-1.25903-.99188-2.74341-1.84125-3.89294-2.95343-.95667-.92554-1.58533-1.99048-2.69397-2.77863-1.23267-.87628-2.41528-1.7406-3.81201-2.34082-2.60254-1.11847-5.37976-1.73682-8.21021-1.82208-3.36523-.10138-6.80908-.04163-10.16748.19525-1.47461.10394-2.94702.26709-4.4054.5105-1.68298.28088-3.22668.89594-4.87756,1.27631-.55786.1286-1.11816.22003-1.66016.41339-.64282.22937-1.10864.63104-1.69788.93408-1.29944.66833-2.84045.85583-4.15833,1.4856-.86621.41388-1.1001.91577-2.05469.48639-.68127-.30652-1.27808-.68927-1.88696-1.11987-.50293-.35559-1.07068-.66675-1.52197-1.08398-.51367-.47491-.85925-1.09705-1.3905-1.55737-.84863-.73541-1.97839-1.04724-3.01965-1.3999-1.54248-.52246-3.03076-.91675-4.66162-1.0379-1.47546-.10962-2.96777-.08038-4.44617-.0614-1.70618.02191-3.36169.34515-5.05603.42328-1.53406.07074-3.1228-.14435-4.62524.2818-.5177.14685-.98291.43658-1.51184.52942-.77917.13672-1.63245.02106-2.42664.09583-1.10925.10443-2.20752.33331-3.22229.80579-1.39026.6474-2.30286,2.08099-3.84229,2.34814-2.44421.42419-5.14307.83514-6.94971,2.71985-2.03125,2.11908-3.67151,4.61475-5.49744,6.89258-1.68689,2.10431-3.05811,4.45612-3.52869,7.13672-.23743,1.35211-.49341,2.70935-.82385,4.04242-.06323.25439-.12158.59064-.22778.83997-.04346.13458-.08691.26923-.13049.40381-.25183.59778-.51318.6615-.7843.1911-.53723-.23694-.93799-.84863-1.52612-1.10193-1.13599-.48926-2.45459-.4472-3.66528-.41656-1.49951.03796-2.90515-.12585-4.39404-.22101-3.00342-.19196-6.03198.16809-9.02197.39423-1.34082.10144-2.5885.01807-3.85291.55109-1.19019.50177-2.28528,1.23785-3.46667,1.77069-.96143.43359-2.07642,1.04663-2.84985,1.77563-1.06128,1.00037-1.90552,2.40265-2.81177,3.55536-1.76831,2.24927-3.06824,4.84302-4.70581,7.18811-.76489,1.09528-1.55811,2.28607-2.63965,3.04565-1.02393.71924-1.75635,1.74304-2.58875,2.66327-.47083.52063-.91467,1.23212-1.52246,1.59985-.47266.28601-1.02502.37018-1.49951.65906-1.53992.93744-3.172,1.56732-4.9541,1.91101-1.29187.24915-2.44006.74969-3.70703,1.06604-1.41687.35388-2.72278.84906-3.9696,1.58868-1.11877.66364-2.24146,1.20605-3.42798,1.74188-1.22583.55359-2.57629.89563-3.74561,1.54297-2.521,1.39587-5.77246,1.13171-8.21033,2.74945-.98389.65289-1.92542,1.44965-2.86023,2.16937-.64819.4989-1.26392,1.03912-1.85229,1.60699-.68359.65979-1.23999,1.4881-2.27271,1.62134-1.45898.18829-2.64539-.82849-3.3512-2.00842-.4032-.67419-.33313-1.39862-.60535-2.10388-.21875-.56653-.62061-.90082-.62927-1.53979-.00916-.66418-1.02649-.66504-1.03125,0-.00317.4375.02454.75525.20996,1.14496.09705.20392.28259.3717.37598.57922.22742.50531.18835,1.04517.32751,1.5672.27808,1.04333,1.14722,2.15497,1.99194,2.80682.37817.29175.79077.45837,1.22485.56134.07104.20233.24707.35974.5293.34961,1.47314-.05292,2.41992.87244,3.82788,1.04456.88843.10858,1.52405.01831,2.42163.34045.58911.21143.97412.29614,1.60742.34601,1.39478.10974,2.36841,1.03461,3.66504,1.39697,1.5293.42743,2.80908.11273,4.17969,1.14825.66833.50482,1.3761.88678,1.63208,1.74158.19067.6366.03333,1.29071.12854,1.93317.15295,1.03204.95361,1.33423,1.6969,1.93188,1.89087,1.52069,3.56812,3.37079,5.83081,4.30457,1.44238.59521,1.35498,1.71564,1.91919,2.94733.20166.44043.49268.70728.84985,1.01636.72253.62512,1.23364,1.16266,1.79272,1.96362.6311.90417,1.38831,1.26172,2.35742,1.7309,1.11646.54041,1.86426,1.44006,3.09131,1.83685,1.21448.3927,2.72131.19055,3.99597.31531,1.52869.14966,2.63953-.06342,4.07532-.53772,1.33594-.44135,2.724-.76044,4.09753-1.05597,1.79846-.3869,3.4093-1.11224,5.27161-1.06866,1.50891.03534,3.07556.32526,4.4364,1.02374,1.30896.67194,2.36804,1.39447,3.84814,1.66809,1.43713.26569,2.96985-.00262,4.3761.32147.50684.11682,1.01367.30273,1.51807.43805,1.11548.29919,1.6687.96637,2.32471,1.86853,1.64844,2.26678,4.07446,3.9588,5.9104,6.07233.67651.77881,1.48474,1.27032,2.47461,1.5722,1.51294.46143,2.9707.83789,4.42505,1.48926,1.34009.60016,2.7085,1.19165,3.88037,2.09113,1.19666.91858,2.2041,1.90466,3.60437,2.53162,2.32446,1.04077,4.854,1.00281,7.2157.1098,1.44653-.54712,2.9552-.90991,4.4126-1.42676.74707-.26489,1.47485-.60181,2.24426-.7995.57959-.14899,1.23962-.13873,1.77441-.42981.82971-.45172,1.32007-.6908,2.30603-.81903.57227-.0744,1.10205-.17755,1.65344-.37012,1.55383-.54272,3.17786-1.05579,4.69397-1.69196,1.07422-.45068,1.88428-1.35016,2.91931-1.88763,1.4386-.74695,2.7384-1.65344,4.10852-2.51617,1.14124-.71869,2.1875-1.34595,3.42236-1.87201.49573-.21118.8197-.45984,1.19873-.84479.46094-.4682,1.01196-.83087,1.46472-1.30048,1.09607-1.1369,1.54761-2.18274,3.25623-2.57971,1.90588-.44287,3.92297.19653,5.76514.67157,2.86719.73938,5.80493.97772,8.70532,1.57825,1.33203.27576,2.64795.02826,3.98535.09735,1.33167.06879,2.48535.76538,3.79382.88464,2.32141.21167,5.28027,1.07898,7.2843-.59094.93823-.78192,1.47729-1.7243,2.62866-2.24432,1.33545-.60309,2.58398-1.27051,4.09302-1.3327,1.5741-.06482,2.78125-.23975,4.27783-.77673,1.44922-.52002,2.98291-.64075,4.41748-1.13104.85339-.29169,1.81494-.88647,2.48816-1.48425,1.16199-1.03186.80188-1.87708,1.11682-3.27222.46521-2.06104,2.09375-1.26166,3.08484-.24823.95483.97638,1.91577,1.95746,2.95251,2.84827.88525.76086,2.05664,1.4519,3.13782,1.89337,1.53113.62518,3.23621.60406,4.76477,1.31042,1.24695.57617,2.2981,1.17053,3.65479,1.47772,1.61523.36566,3.19714.85504,4.81067,1.22321,1.28699.29364,2.57776.43726,3.89868.39435,1.23254-.03998,2.73474-.04572,3.87939-.55371.60181-.26703,1.09216-.72632,1.68323-1.01288.77173-.37421,1.56213-.36005,2.40186-.35626,1.70251.00757,3.40479-.00043,5.10718-.00098,1.1864-.00031,2.68079.27777,3.82178-.07739.45642-.14215.75586-.4444,1.14868-.69214.84009-.52991,1.91846-.67108,2.88501-.69653,1.33398-.0351,2.74121-.03198,4.07202.05109,1.76501.11017,2.73511,1.55981,3.54993,2.90167.54053.89026,1.53601,1.96606,2.47217,2.45013,1.10339.57056,2.42615.07916,3.58289.50092,1.1571.422,2.04248,1.93506,2.05554,3.11267.00769.68738-.1825,1.41138.48486,1.87006.75549.51923,1.78357.0683,2.57959-.08673,1.64001-.31927,3.15344.62915,4.57507,1.3728,1.104.57751,2.20361.92914,3.45178,1.01807,1.00842.07184,3.02783-.37372,3.82117.43066.44409.45007.25879,1.33734.39587,1.90332.10242.42249.2738.83594.43835,1.23779.3252.79486.79004,1.77893,1.7312,1.9519.96387.17719,1.90869-.45422,2.69702-.90082,1.01929-.57758,2.28833-.54858,3.01611-1.60327,1.22339-1.77301.38635-4.24554-.68018-5.81915Z" fill="#0016a3"/>
    <rect width="1920" height="1080" fill="none"/>
  </g>
</svg>
