<?xml version="1.0" encoding="UTF-8"?>
<svg xmlns="http://www.w3.org/2000/svg" viewBox="0 0 1920 1080">
  <g id="_09-cloud-center1" data-name="09-cloud-center1">
    <path d="M978.52752,390.79621c2.47058,1.56411,10.05755,6.52063,11.89383,8.60569,1.96246,2.22835,2.36735,5.93734,3.87202,7.13951,2.01464,1.6096,10.42247,3.89333,13.95173,6.86617,1.02638.86456.3302,2.51557,1.23139,3.15297,1.66407,1.17697,5.08387.39634,6.22337,1.10687.86871.54168,1.84566,5.93137,3.1347,7.37547.28721.32176,6.68671,4.74812,7.07801,4.92939,4.2595,1.97318,8.67243-.71083,12.48554-.55416,3.67436.15097,18.68602,8.43674,22.03333,11.07868,5.20257,4.10625,7.71069,10.46154,12.55067,13.48275,1.69418,1.05754,5.81203.94931,7.96499,1.54965-1.26499,3.23166-5.28965,1.2975-7.9952,2.50283-2.17773.97018-4.87981,4.83864-8.98129,6.02965-10.79298,3.13413-16.52177,4.09027-28.5132,3.42533-1.56654-.08687-3.40196,1.20399-5.03965,1.05811-1.63754-.14587-6.95812-5.65763-10.03207-5.63485-.87784.0065-2.62908,2.40426-4.48973,1.60812-.84179-1.12897,4.07244-1.02873,1.00605-2.49985-3.79421-1.8203-7.07747-.78462-10.0018,2.06654-.9741.94973-.78247,2.83717-1.23074,3.22673-.64257.5584-3.71062.26632-5.78393,1.73489-3.93856,2.78977-5.77577,9.95666-13.325,10.15321-2.68644.06994-10.61873-2.0027-13.22336-3.16387-7.83545-3.49312-12.95315-12.58937-19.02406-18.55706-2.52429,1.10586-9.76472,4.69152-11.99146,4.672-1.00672-.00882-2.46993-1.34856-4.08346-1.5413-10.35471-1.23692-25.67803-6.33666-34.98168-5.63676-2.08314.15671-3.94718,2.47639-6.98489,2.61524-4.78708.21882-12.38202-3.86653-16.0094-2.83438-.63617.18102-.42929,1.66422-1.13953,1.80231-.68848.13385-13.21613-.34833-13.91024-.44893-1.19953-.17384-2.7244-2.82929-5.16411-3.38465-5.77857-1.3154-13.12864,1.17192-20.04478-1.97272-1.83182-.83289-2.73658-2.68747-4.25032-3.60757-.92588-.56278-2.51449.16172-3.73154-.88176-2.41952-2.07447-6.68939-8.16957-2.29587-10.26868l20.32785-4.44181c2.22481-1.57444,4.29108-10.60857,6.20964-11.06867,2.96358-.7107,2.25274,4.67161,2.52952,4.96085.74252.77595,16.28697-.45624,19.12204-.38463,1.77676.04488,5.61092,1.62063,5.84823,1.43528.30049-.23471.45873-3.99066,1.28364-4.75743.58941-.54787,2.32232-.23696,3.20546-1.25056,1.17718-1.35109.97395-4.14193,3.48111-6.56298,2.00902-1.94002,6.30334-3.08117,7.72592-4.78865,1.52679-1.83256,3.45855-7.23845,5.48079-10.03258,1.18547-1.63797,3.32425-2.13538,4.31881-3.68549,1.77837-2.77172,2.98612-8.21173,5.67457-11.35005,2.43586-2.84346,10.64072-5.2319,14.37402-5.64189,19.91124-2.18669,32.61719,1.86186,49.2201,12.37304Z" fill="#f09"/>
    <rect width="1920" height="1080" fill="none"/>
  </g>
</svg>
