<?xml version="1.0" encoding="UTF-8"?>
<svg xmlns="http://www.w3.org/2000/svg" viewBox="0 0 1920 1080">
  <g id="_02-crater" data-name="02-crater">
    <path d="M1237.79041,905.60327c-.43201-1.54205-7.65149-8.78333-9.32532-10.71741-3.6936-4.26776-7.5415-8.55988-11.53552-12.93695-46.21191-50.64331-94.33826-103.32727-142.50085-151.97748-1.27893-1.29193-2.61353-4.35327-3.49072-5.01343,2.40015-2.9856-1.16321-6.15088-3.02881-8.46979-10.1106-12.56775-26.39429-29.29749-37.94666-41.04871-3.59094-3.65271-3.61462-4.70215-8.02167-1.47852-3.01501-1.01666-6.62354-.52087-9.45312-1.0434-1.54462-.28522-3.04816-2.12982-3.97797-1.94482-1.80609.35938-2.35455,4.82294-2.58197,4.98773-.9787.70941-3.8811-1.87018-4.98572-1.99951,1.16467-4.95471-4.42975-2.55017-7.42285-3.08063-11.38861-2.01837-7.21338-.41718-16.57574,1.08075-1.52777.24438-3.44098-.22089-4.99976,0-6.83368.96832-27.98969,3.16437-32.99805-.99994-.1095-.09106.34857-2.04584-.55328-2.07001-2.57501-.06891-3.91034,1.78009-10.44611,1.07001-.32507-.03528-.66986.00726-.99994,0-1.50806-3.73993-4.1153-.48199-6.65222-.30829-1.40387.09619-2.95892-.77777-4.34717-.69165-1.5816.09821-1.39618.6546-1.99988.99994-4.41449,1.28082-7.07391-4.78003-10.54211-2.06378-17.19189,18.15723-34.36151,36.31049-51.42792,54.5871-2.15118,2.30377-10.49768,9.03223-10.73291,11.12036-.12177,1.08087.73364,2.14417.70715,2.35254-.12292.96594-11.23523,12.65753-12.9729,14.52551-42.06519,45.21967-89.47009,87.02942-132.03711,131.94763l-34.79407,24.83136c16.88135,6.15338,31.35126,16.83081,50.41467,19.5813,24.89795,3.59229,45.927,6.73846,70.90863,6.11963,19.3175-.47852,26.18524,3.93201,42.48169,5.98279,13.35657,1.68091,33.70465-1.43347,47.99719-1.99988.15045-.00592,1.12744-1.01727,2.42102-1.04102,18.00269-.33044,28.98511,5.71832,47.57611,5.04083.98328-.03589,2.01923-.05878,2.99982,0,.48352-1.29993,1.90344-.96332,2.99982-1,.98059-.03271,2.02429-.07037,2.99982,0,.48352-1.3139,1.90601-.9444,2.99988-.99994,1.31384-.06665,2.70465.15344,3.99976,0,.11102-.01312.27344-.76385,1.99988-.99994,1.57916-.21588,3.38708.16321,4.99969,0,.11121-.01123.22705-.86346,1.99988-.99994,3.47803-.26764,7.44263-.01654,10.99939,0,.73407.00342.82153-.07355,1.99988,0,.66107.04132,1.34192-.05731,1.99988,0,2.34821.20465,3.54205.78436,4.99969.99994,8.92218,1.31989,20.58972,4.73431,28.99835,4.99976-.61273-2.97144,2.55438-3.13251,1.99988,0,1.66028-.07477,3.82294-.84418,5.99963-.99994.39136-.02802,2.18939-.82861,3.99976-.99994.65588-.06213,1.34631.07074,1.99988,0,5.69373-2.87347,13.65112-3.62238,19.9989-3.99982,6.86414-.40808,15.07019-.23126,21.99866,0,1.0979.03668,2.51904-.29919,2.99988.99994,11.17004-.79877,23.35315,2.92706,34.48206,1.98364,6.97729-.59143,20.16748-6.98334,24.01453-6.98334h19.9989c7.74658,0,16.23962,1.41071,24.49854.99994-.18213-2.20282.39844-6.06946,2.66406-6.83588,3.51978-1.19073,20.09729-.12677,25.33435-.1637,6.63953-.04688,13.36877.23035,19.9989,0-.6167-4.03839.8689-3.01801,4.00073-3.0069-3.97729-7.88086,11.11035-4.53644,16.5376-4.95239,2.53003-.19391,4.91077-1.06915,7.45508-1.04553,1.23718-1.16907-4.48828-5.203-3.99854-7.47461.45557-2.11218,7.073-.55219,5.86536-4.86365Z" fill="#a16969"/>
    <rect width="1920" height="1080" fill="none"/>
  </g>
</svg>
