<?xml version="1.0" encoding="UTF-8"?>
<svg id="Vrstva_1" data-name="Vrstva 1" xmlns="http://www.w3.org/2000/svg" viewBox="0 0 1920 1080">
  <g id="_02-crater" data-name="02-crater">
    <path d="M1210.30073,869.42378c-.38926-1.38945-6.89431-7.91414-8.4025-9.65683-3.32809-3.84543-6.79521-7.7128-10.39399-11.65673-41.63886-45.63173-85.0027-93.10218-128.39921-136.93804-1.15237-1.16408-2.3549-3.92248-3.14529-4.51731,2.16263-2.69015-1.0481-5.5422-2.72908-7.63163-9.11007-11.32407-23.78235-26.39826-34.19152-36.98659-3.23559-3.29124-3.25693-4.23683-7.22786-1.3322-2.71665-.91606-5.96808-.46933-8.51766-.94014-1.39176-.25699-2.74652-1.91906-3.58431-1.75237-1.62736.32381-2.12155,4.34567-2.32646,4.49415-.88185.63921-3.49704-1.68511-4.49234-1.80164,1.04942-4.4644-3.99139-2.29781-6.6883-2.77577-10.26161-1.81864-6.49955-.37589-14.93544.9738-1.37659.2202-3.10047-.19903-4.50499,0-6.15743.8725-25.21987,2.85123-29.73262-.90099-.09866-.08205.31408-1.84338-.49853-1.86516-2.32019-.06209-3.52338,1.60394-9.41238.96412-.2929-.03179-.60357.00654-.90099,0-1.35882-3.36983-3.70805-.4343-5.99393-.27778-1.26495.08667-2.66611-.7008-3.91698-.62321-1.42509.08849-1.25802.58982-1.80197.90099-3.97764,1.15407-6.37389-4.30701-9.49888-1.85955-15.49061,16.36042-30.96115,32.71726-46.3387,49.18525-1.93831,2.07579-9.45885,8.13841-9.6708,10.01991-.10972.97391.66104,1.93198.63717,2.11974-.11076.87035-10.12341,11.40496-11.68912,13.08809-37.90248,40.7448-80.61628,78.41713-118.97094,118.89031l-31.3509,22.37409c15.2108,5.54445,28.24879,15.16526,45.42572,17.64357,22.43409,3.2368,41.38214,6.07164,63.89163,5.51404,17.40588-.43116,23.59399,3.5429,38.27777,5.39074,12.03482,1.51457,30.36929-1.29162,43.24747-1.80197.13556-.00533,1.01587-.91661,2.18144-.938,16.22117-.29774,26.11679,5.15245,42.86806,4.542.88597-.03234,1.81941-.05296,2.70296,0,.43567-1.17129,1.71508-.86799,2.70296-.90104.88355-.02948,1.82397-.06341,2.70296,0,.43567-1.18388,1.71739-.85094,2.70302-.90099,1.18383-.06005,2.437.13826,3.60395,0,.10004-.01182.24638-.68827,1.80197-.90099,1.42289-.19452,3.0519.14706,4.50493,0,.1002-.01012.20458-.77802,1.80197-.90099,3.13385-.24115,6.70612-.0149,9.91091,0,.66143.00308.74024-.06627,1.80197,0,.59565.03723,1.20912-.05164,1.80197,0,2.11583.1844,3.19154.70674,4.50493.90099,8.03926,1.18927,18.5522,4.26581,26.12872,4.50499-.5521-2.67739,2.3016-2.82252,1.80197,0,1.49598-.06737,3.44463-.76064,5.40592-.90099.35263-.02524,1.97273-.74662,3.60395-.90099.59098-.05599,1.21308.06374,1.80197,0,5.13028-2.58912,12.30023-3.26391,18.01984-3.604,6.18487-.3677,13.57887-.20838,19.82171,0,.98925.03305,2.26976-.26959,2.70302.90099,10.06468-.71972,21.04216,2.63741,31.06977,1.78734,6.28683-.5329,18.17174-6.29228,21.63809-6.29228h18.01984c6.97999,0,14.63258,1.2711,22.0742.90099-.16411-1.98483.35901-5.46883,2.40043-6.15941,3.17146-1.0729,18.1085-.11423,22.82731-.1475,5.98249-.04224,12.04582.20755,18.01984,0-.55567-3.63876.78291-2.71935,3.60483-2.70934-3.58371-7.10098,10.01089-4.08752,14.90106-4.46231,2.27966-.17472,4.42481-.96335,6.71734-.94207,1.11475-1.05338-4.04413-4.68812-3.60285-6.73493.41048-1.90316,6.37307-.49754,5.28493-4.38235Z" fill="#a16969"/>
    <rect width="1920" height="1080" fill="none"/>
  </g>
</svg>
