<?xml version="1.0" encoding="UTF-8"?>
<svg id="Vrstva_1" data-name="Vrstva 1" xmlns="http://www.w3.org/2000/svg" viewBox="0 0 1920 1080">
  <g id="_09-cloud-center1" data-name="09-cloud-center1">
    <path d="M976.69407,405.56117c2.22609,1.40932,9.06227,5.87536,10.71684,7.75409,1.76826,2.00783,2.13308,5.34979,3.48885,6.43299,1.81527,1.45032,9.39108,3.50806,12.57109,6.18671.92481.779.29753,2.26664,1.10954,2.84096,1.4994,1.0605,4.58078.35712,5.60752.99734.78274.48808,1.66301,5.34441,2.8245,6.64561.25879.28992,6.025,4.27826,6.37758,4.44159,3.83799,1.77792,7.81422-.64049,11.24999-.49932,3.31075.13603,16.83688,7.60185,19.85295,9.98235,4.68773,3.6999,6.94765,9.42628,11.30868,12.14852,1.52653.95289,5.23688.85537,7.17679,1.3963-1.13981,2.91186-4.76619,1.1691-7.20401,2.25516-1.96222.87418-4.39692,4.35982-8.09252,5.43297-9.72492,2.82398-14.8868,3.6855-25.69158,3.08636-1.41151-.07827-3.06531,1.08485-4.54094.9534-1.47549-.13143-6.26956-5.09776-9.03932-5.07724-.79097.00586-2.36891,2.16634-4.04544,1.44898-.75849-1.01725,3.66944-.92693.90649-2.25247-3.41874-1.64017-6.3771-.70698-9.01204,1.86204-.8777.85574-.70504,2.55641-1.10895,2.90742-.57898.50314-3.34342.23996-5.21156,1.56321-3.54881,2.51369-5.20421,8.97137-12.00638,9.14846-2.4206.06302-9.56792-1.80451-11.9148-2.85078-7.06007-3.14745-11.67133-11.34354-17.14147-16.72069-2.27449.99643-8.79842,4.22725-10.8048,4.20967-.9071-.00795-2.22551-1.21511-3.67937-1.38878-9.33002-1.11452-23.13698-5.70959-31.51995-5.07896-1.87699.1412-3.55657,2.23133-6.29368,2.35644-4.31336.19716-11.15671-3.48391-14.42513-2.5539-.57322.16311-.3868,1.49953-1.02676,1.62395-.62035.12061-11.90829-.31386-12.53371-.4045-1.08083-.15664-2.45479-2.54931-4.65308-3.04971-5.20673-1.18523-11.82945,1.05594-18.06119-1.7775-1.65055-.75047-2.46578-2.42153-3.82972-3.25057-.83426-.50709-2.26566.14572-3.36227-.7945-2.18009-1.86918-6.02742-7.36112-2.06867-9.25251l18.31624-4.00225c2.00464-1.41864,3.86644-9.55876,5.59515-9.97333,2.67031-.64037,2.02981,4.20932,2.2792,4.46993.66905.69916,14.67524-.41109,17.22976-.34657,1.60094.04043,5.05568,1.46026,5.2695,1.29324.27075-.21148.41333-3.59575,1.15662-4.28665.53109-.49365,2.09251-.21351,2.88825-1.12681,1.06069-1.21739.87757-3.73205,3.13663-5.91352,1.81022-1.74804,5.67957-2.77626,6.96137-4.31477,1.3757-1.65121,3.11629-6.52214,4.93842-9.03977,1.06816-1.47588,2.99528-1.92407,3.89143-3.32078,1.60238-2.49744,2.69062-7.39911,5.11303-10.22687,2.19481-2.56207,9.58774-4.71416,12.95159-5.08358,17.94086-1.9703,29.38945,1.67761,44.34936,11.14863Z" fill="#f09"/>
    <rect width="1920" height="1080" fill="none"/>
  </g>
</svg>
