<?xml version="1.0" encoding="UTF-8"?>
<svg id="Vrstva_1" data-name="Vrstva 1" xmlns="http://www.w3.org/2000/svg" viewBox="0 0 1920 1080">
  <g id="_13-cloud-left" data-name="13-cloud-left">
    <path d="M410.07888,381.47601c-.24775-.46493-.75811-.62513-1.24267-.6947-.42363-.06082-.79358-.02029-1.21022-.18698-.36055-.14425-.65758-.40971-1.04144-.51707-.28037-.07837-.58058-.03498-.85485-.10614-.32744-.08502-.62057-.31639-.94861-.41846-1.15842-.3606-2.21647-.63778-3.31324-1.20962-.72121-.37606-1.23173-.84099-2.05209-1.00042-.9375-.18214-1.93495-.32392-2.88934-.33729-.98315-.0138-2.11644-.18308-3.08309-.4035-1.03006-.23494-2.2327-.33773-3.22058-.68222-.78841-.27498-1.57314-1.41002-2.08586-2.0604-.78869-1.00042-1.17041-2.1716-1.40018-3.41047-.20865-1.12504-.30489-2.26778-.50007-3.39518-.13699-.79155-.18555-1.76612-.56645-2.48133-.24467-.45949-1.0189-.37815-1.12779.14744-.28752,1.38758-.41312,2.7953-.86898,4.14367-.23208.68634-.39063,1.38104-.99987,1.79867-.55342.3793-1.31175.52746-1.94771.58372-2.4997.22125-5.29175-.65901-7.6379.66005-.9567.53791-1.37653,2.17066-2.41264,2.36199-1.38907.2565-2.74459-1.05118-3.75111-1.79631-1.12262-.83098-2.31436-1.57429-3.55033-2.22445-1.30735-.68772-2.70989-1.20852-3.94453-2.0296-.80579-.53593-1.44511-1.3371-2.43733-1.51847-1.48201-.27096-3.43759.32563-4.69428-.76212-.75855-.65659-.90759-1.66938-1.87259-2.08586-.33448-.14436-.46179-.13133-.72632-.42154-.55105-.60462-1.01785-1.31593-1.50868-1.96927-1.61664-2.1518-3.14072-4.28759-4.59012-6.53651-.55529-.86161-1.6757-1.5479-2.51097-2.14465-1.21193-.86584-2.56025-1.28617-3.86066-1.97312-1.12234-.59285-2.16456-1.26231-3.31605-1.80659-.51564-.24379-.93035-.39531-1.21105-.87277-.36797-.62596-.47664-1.58029-.77092-2.27169-.51245-1.20385-1.19736-2.25909-1.96602-3.31066-.34438-.47114-.69833-.93915-.96088-1.46276-.50761-1.01208-.30643-1.7891-.39866-2.83654-.09168-1.041-.6864-1.90041-1.10848-2.82059-.26348-.57432-.33129-1.14698-.47054-1.75198-.13166-.57217-.48891-.93684-.78192-1.44065-.60104-1.03342-1.16793-1.98747-1.64199-3.08089-.52207-1.20423-.7498-2.5652-1.35426-3.72565-.47631-.91446-1.28925-1.619-2.09427-2.23913-1.10414-.85045-2.39422-1.11184-3.63815-1.67202-1.0371-.46702-2.072-.77642-3.20903-.89213-.65747-.06687-1.31763-.0226-1.97339-.09091-1.00042-.10433-1.60443-.60242-2.366-1.1874-1.03336-.7938-2.09515-1.59943-3.288-2.14003-1.24993-.5664-2.51009-.53912-3.85483-.55815-1.41915-.02007-2.83891-.09063-4.25701-.14673-1.46986-.05813-2.88054-.54522-4.32785-.60407-1.19791-.04873-2.28296.6518-3.23608,1.29552-.73798.49848-1.40524,1.18757-2.31398,1.34199-.5593.09503-1.15825.04972-1.72861.14238-1.27638.20733-2.29809.72522-3.40563,1.36559-.70663.40861-1.44461.77219-2.1353,1.2078-.41103.25919-.83433.67958-1.34183.71103-.5296.03289-1.1059-.23147-1.68307-.18654-.47961.03734-.95048.14766-1.42454.22306-1.5292.2433-3.06736.41411-4.59205.69008-1.25505.22719-2.55211.45943-3.77234.83703-1.24971.38673-2.03873,1.48443-3.08094,2.22219-1.12834.7987-2.40346,1.08869-3.59421,1.75-.611.33938-1.09594.9198-1.79334,1.09919-.63651.16378-1.35701.09283-2.00579.21025-1.09743.19864-1.41371.74436-2.12733,1.51396-.92337.99585-2.12095,1.68918-3.18741,2.51235-1.06542.82234-1.57072,1.71987-2.28544,2.82631-.84192,1.30344-2.29924,2.21202-3.44996,3.22525-.83351.73386-1.88727,1.46452-2.57482,2.33928-.76289.97061-1.03292,2.46021-1.36311,3.62809-.37897,1.34051-.53785,2.7122-1.63869,3.69711-.92942.83153-2.11303,1.26423-2.91299,2.29402-.1189.15311-.27212.58988-.41175.79809-.02722-.01265-.071-.02513-.14821-.03646-.20645-.03036-.38915-.1624-.60819-.1778-1.03847-.07309-2.45532.62475-3.42197.94267-1.28667.42319-2.53104.9606-3.7867,1.46573-.9182.36935-1.88986.77169-2.49794,1.59404-.25133.33993-.33531.68766-.5009,1.0586-.42214.94575-.78407,1.24696-1.60608,1.84129-1.05888.7657-1.99627,1.46628-2.9764,2.3368-.84649.75184-1.93721,1.16997-2.7562,1.95404-.16983.16257-.34416.53978-.52927.64988-.3661.21773-1.15952.18693-1.59365.35802-.85952.33877-1.6278,1.00229-1.92995,1.89832-.22796.67595-.32882,1.26363-.78737,1.85257-.46856.60176-1.07472.9991-1.61449,1.52381-.46498.45201-.80007.89967-1.43274,1.13263-.57662.21234-1.18652.32651-1.7648.53906-.92216.33899-1.8458.80661-2.43315,1.6239-.3281.45657-.53857.83367-.99558,1.17937-.32937.24913-.68667.43842-1.04144.64586-1.11833.65395-2.12678,1.44291-3.43643,1.48493-1.48317.04763-3.05042.16499-4.42756-.40224-1.24124-.51124-2.42248-.81772-3.5302-1.61064-.75976-.5439-1.15781-1.19642-2.13898-1.29024-1.16749-.11159-2.36072.1729-3.40849.67468-1.13769.54489-1.92175,1.53629-3.01176,2.14624-1.20159.67237-2.617,1.16243-3.69562,2.03427-.76487.61826-1.03325,1.56824-1.89426,2.11391-.5345.33877-1.06647.71488-1.60399,1.04529-.68271.41967-1.48751.49347-2.23105.76201-2.17781.78638-4.40204,2.02635-5.89615,3.83124-.42462.51294-.71356,1.12817-1.1444,1.6316-.35092.41004-.82493.62656-1.22903.96258-.55149.45861-.98029.95884-1.5755,1.37048-.30451.21058-.62937.38854-.86211.68348-.37859.47983-.32997.99987-.638,1.5237-.21239.36115-.48616.73771-.71604,1.09171-.714,1.09946-1.46364,2.32327-2.49376,3.15706-.85303.69057-2.40522.78594-3.06538,1.64276-.22438.2912-.14079.55617-.2378.87217-.21602.70372-.77004.91402-1.34639,1.30707-.81888.55842-.9947,1.45583-1.7081,2.08877-1.08132.95939-3.32974.99508-4.73734,1.03237-.30616.00808-.44618.26304-.42913.50007-.19908.26046-.22537.67397.13364.90203.57772.36704,1.20203.09036,1.76353.56249.38964.32766.51465.85897.98386,1.10403,1.29596.67672,3.05383-.29373,4.39027.37639.72363.3628.72121.86953,1.18262,1.4285.35081.42506.75063.52223,1.25857.67023.69382.20211,1.25395.57662,1.90437.88795.67567.32332,1.22018.31837,1.94887.45063.6391.11598,1.21451.4657,1.87913.46724.83879.00192,1.59261-.46333,2.4221-.54599.69519-.06924,1.44445-.04444,2.14096-.00995.3589.01782.84951-.01089,1.16425.1954.47076.30858.63228.96165.90869,1.41547.68849,1.13059,1.84674,1.66784,2.92663,2.35154.93255.59048,1.45281,2.06243,2.56547,2.3159.46696.10636.84935-.12104,1.29728-.19996.89945-.15844,1.86252-.05978,2.77561-.16768,1.64216-.19413,3.18417-.64014,4.77139-1.07994.76641-.21234,1.55977-.41813,2.36171-.4024.90737.01776,1.78569.36995,2.67436.53213.69299.12643,1.3988.20414,2.06722.44073.87987.31144,1.57407.79947,2.52582.83967,1.6393.06918,3.33381.07089,4.96145-.13001,1.67229-.20634,2.97579-.8907,4.55421-1.36685,1.194-.36016,2.62811-.90478,3.5104-1.80555.43353-.4426.78814-.97556,1.19697-1.44313.24214-.2769.48022-.64267.74618-.89092.72671-.6782,1.41211-.5984,2.29996-.6688.55364-.04389,1.15149-.12577,1.59613-.49122.54121-.44469.54495-1.10898.83895-1.70221.40031-.80766.99998-1.82964,2.0604-1.15913.65483.414.94245,1.36053,1.56555,1.84701.51701.40366,1.14445.45641,1.71778.74739.76251.387,1.39297,1.02412,2.28362,1.12163.65719.07193,1.21512-.17367,1.83211-.35125.13408-.04735.2681-.0947.40213-.14205.65444-.30753.87453-.27212.66027.10625.05423.10037-.01413.54308.03976.70306.07424.22059.28916.44568.54654.42159.89356-.08348,1.29321.54649,1.86544,1.15402.58603.62227.82548,1.6757,1.53046,2.15273.48929.33107.94889.19149,1.45655-.01336.32997-.1332.6402-.27707.91523-.50502.3039-.25188.64119-1.00388,1.07703-.7354.49182.30302.70938,1.76975.82383,2.25546.24187,1.02632.54258,1.98027.69211,3.02149.06143.4277.1217.74293.52856.97149.27888.15668.46619.11324.75789.15019.763.09668,1.22925.26134,1.83783.80716,1.41035,1.26495,2.6968,3.13121,3.7438,4.69137.97358,1.45066,2.87048,1.71893,4.52242,1.68901.95367-.01727,1.87435-.08024,2.81312-.251.7118-.12951,1.4257-.32233,2.15158-.35439.62051-.02739,1.24152.07617,1.86225.03272.85441-.05978,1.62742-.38574,2.43123-.65235,1.07774-.35747,2.12133-.65406,3.13176-1.18163,1.00993-.52729,1.97922-.8252,3.05779-1.15611.99833-.30632,1.72025-.99596,2.63273-1.45913.8246-.41851,1.6113-.70482,2.33268-1.30834.79072-.66154,1.44131-1.46001,2.06232-2.27801.57014-.75101,1.13796-1.50659,1.64386-2.30237.52614-.82779,1.27886-1.42036,1.85444-2.20465,1.17525-1.60157,2.61959-3.05278,3.60604-4.78832.50326-.88537.7398-1.93919,1.41629-2.71088.60203-.68673,1.34623-1.21429,1.92626-1.91246.51981-.62563.78258-1.15704,1.71756-1.04381.474.05742.90093.29252,1.37301.36709.51833.08189,1.03633.06363,1.54773.19375.56849.14464,1.10221.40152,1.67306.54313,2.23127.55358,4.47738,1.06806,6.71178,1.61603.91028.22323,1.78712.60137,2.70378.78583.92975.18715,1.86522.08002,2.79414-.07166.95032-.15514,1.90157-.33096,2.85205-.50359,1.0938-.1987,1.96102-.70317,2.99861-1.02902,1.13851-.35752,2.57642-.18616,3.77603-.29714,1.09243-.10103,2.13783-.23301,3.1867-.56574,4.18167-1.32648,8.37814-2.18644,12.76582-2.43095,2.09653-.11681,4.22886-.35411,6.21704-1.05266,1.01483-.35659,2.14718-.24187,3.21656-.23521,1.4169.0088,2.74795.28812,4.10297.68216,2.06568.60071,3.99942,1.42542,6.17734,1.3459,2.16087-.07892,4.40528-.24269,6.51517-.73507,1.00548-.23466,1.98434-.57866,2.98085-.8466,1.12157-.30154,2.09895-.81882,3.26083-.90792,2.09339-.16048,4.18019-.09091,6.26286-.42236,2.16318-.34427,4.36096.12929,6.51391-.27811,2.39235-.45267,4.87769-.28719,7.30897-.27861.9743.00346,1.96789.07892,2.92481-.14271,1.08561-.25149,1.98978-.77829,3.12444-.88982.99008-.09729,1.88502-.3094,2.84567-.56557,1.35217-.3606,2.73216-.40037,4.12239-.41708,2.13887-.02579,4.29458.37078,6.44637.41543,1.86236.03866,3.1564-.85276,4.55102-1.96509,1.53646-1.2254,2.7364-2.67365,4.14141-4.00321,1.49307-1.41294,2.78831-2.90842,3.87837-4.65864.52421-.84165.93178-1.77398,1.36784-2.66336.23576-.48093.46685-1.06669.19017-1.58601Z" fill="#f6ff00"/>
    <rect width="1920" height="1080" fill="none"/>
  </g>
</svg>
