<svg xmlns="http://www.w3.org/2000/svg" viewBox="0 0 1920 1080">
  <g data-name="13-cloud-left">
    <path fill="#f6ff00" d="M349.683 364.066c-.275-.516-.841-.694-1.38-.771-.47-.068-.88-.023-1.342-.208-.4-.16-.73-.454-1.156-.574-.311-.086-.645-.038-.949-.117-.363-.095-.689-.351-1.053-.465-1.285-.4-2.46-.708-3.677-1.342-.8-.418-1.367-.934-2.277-1.11-1.04-.203-2.148-.36-3.207-.375-1.091-.015-2.349-.203-3.422-.448-1.143-.26-2.478-.374-3.574-.757-.875-.305-1.746-1.565-2.315-2.286-.875-1.11-1.299-2.41-1.554-3.785-.231-1.25-.338-2.517-.555-3.769-.152-.878-.206-1.96-.628-2.753-.272-.51-1.131-.42-1.252.163-.32 1.54-.459 3.103-.965 4.599-.257.762-.433 1.533-1.11 1.996-.613.421-1.455.586-2.16.648-2.775.246-5.874-.731-8.478.733-1.061.597-1.527 2.409-2.677 2.621-1.542.285-3.046-1.167-4.163-1.994a30.472 30.472 0 0 0-3.94-2.468c-1.451-.764-3.008-1.342-4.378-2.253-.895-.595-1.604-1.484-2.705-1.685-1.645-.3-3.815.361-5.21-.846-.842-.729-1.007-1.853-2.078-2.315-.372-.16-.513-.146-.807-.468-.611-.67-1.13-1.46-1.674-2.185-1.794-2.388-3.486-4.759-5.094-7.255-.616-.956-1.86-1.718-2.787-2.38-1.345-.96-2.841-1.427-4.285-2.19-1.245-.658-2.402-1.4-3.68-2.005-.572-.27-1.032-.438-1.344-.968-.408-.695-.529-1.754-.855-2.521-.57-1.337-1.33-2.508-2.182-3.675-.383-.523-.775-1.042-1.067-1.623-.563-1.123-.34-1.986-.442-3.148-.102-1.156-.762-2.11-1.23-3.13-.293-.638-.368-1.274-.523-1.945-.146-.635-.542-1.04-.867-1.599-.668-1.147-1.297-2.206-1.823-3.42-.58-1.336-.832-2.846-1.503-4.134-.528-1.015-1.43-1.797-2.324-2.485-1.225-.944-2.657-1.234-4.038-1.856-1.15-.518-2.3-.861-3.561-.99-.73-.074-1.463-.025-2.19-.1-1.11-.116-1.781-.67-2.626-1.318-1.147-.881-2.325-1.776-3.65-2.376-1.387-.628-2.785-.598-4.278-.619-1.575-.022-3.15-.1-4.724-.163-1.631-.064-3.197-.605-4.803-.67-1.33-.054-2.534.723-3.592 1.438-.819.553-1.56 1.318-2.568 1.489-.62.105-1.285.055-1.918.158-1.417.23-2.55.805-3.78 1.516-.784.453-1.603.857-2.37 1.34-.456.288-.926.754-1.489.79-.588.036-1.227-.258-1.868-.208-.532.042-1.055.164-1.58.248-1.698.27-3.405.46-5.097.766-1.393.252-2.833.51-4.187.928-1.387.43-2.263 1.648-3.42 2.467-1.251.886-2.667 1.208-3.988 1.942-.678.377-1.216 1.02-1.99 1.22-.707.182-1.507.103-2.227.233-1.218.22-1.569.826-2.36 1.68-1.025 1.106-2.354 1.875-3.538 2.789-1.182.912-1.743 1.908-2.536 3.136-.935 1.447-2.552 2.455-3.83 3.58-.924.814-2.094 1.625-2.857 2.596-.847 1.077-1.146 2.73-1.513 4.027-.42 1.487-.597 3.01-1.818 4.103-1.032.923-2.345 1.403-3.233 2.546-.132.17-.302.654-.457.885a.618.618 0 0 0-.165-.04c-.229-.034-.432-.18-.675-.197-1.152-.081-2.725.693-3.798 1.046-1.427.47-2.809 1.066-4.202 1.627-1.02.41-2.098.856-2.772 1.769-.28.377-.373.763-.556 1.175-.469 1.05-.87 1.383-1.783 2.043-1.175.85-2.215 1.627-3.303 2.594-.94.834-2.15 1.298-3.059 2.168-.188.18-.382.6-.587.721-.407.242-1.287.208-1.769.398-.954.376-1.807 1.112-2.142 2.107-.253.75-.365 1.402-.874 2.056-.52.667-1.193 1.108-1.792 1.69-.516.502-.888 1-1.59 1.258-.64.235-1.316.362-1.958.598-1.024.376-2.049.895-2.7 1.802-.365.507-.598.926-1.106 1.31-.365.276-.762.486-1.155.716-1.242.726-2.36 1.601-3.814 1.648-1.646.053-3.386.183-4.914-.446-1.378-.568-2.689-.908-3.918-1.788-.843-.604-1.285-1.328-2.374-1.432-1.296-.124-2.62.192-3.783.749-1.262.605-2.133 1.705-3.342 2.382-1.334.746-2.905 1.29-4.102 2.258-.849.686-1.146 1.74-2.102 2.346-.593.376-1.184.793-1.78 1.16-.758.465-1.651.547-2.476.845-2.417.873-4.886 2.25-6.544 4.252-.471.57-.792 1.253-1.27 1.811-.39.455-.916.696-1.364 1.069-.612.508-1.088 1.064-1.749 1.52-.338.234-.698.432-.956.76-.42.532-.367 1.109-.708 1.69-.236.4-.54.819-.795 1.212-.793 1.22-1.625 2.578-2.768 3.503-.946.767-2.67.873-3.402 1.824-.249.323-.156.617-.264.968-.24.78-.854 1.014-1.494 1.45-.909.62-1.104 1.616-1.896 2.318-1.2 1.065-3.695 1.105-5.257 1.146-.34.01-.495.292-.477.555-.22.29-.25.748.149 1.001.64.408 1.334.1 1.957.625.432.363.571.953 1.092 1.225 1.438.75 3.39-.326 4.872.418.803.402.8.965 1.313 1.585.39.472.833.58 1.397.744.77.224 1.391.64 2.113.985.75.36 1.354.354 2.163.5.71.13 1.348.517 2.086.519.93.002 1.767-.514 2.688-.606.771-.077 1.603-.05 2.376-.011.398.02.943-.012 1.292.217.522.342.702 1.067 1.008 1.57.764 1.255 2.05 1.852 3.248 2.61 1.035.656 1.613 2.29 2.848 2.57.518.119.942-.134 1.44-.221.998-.176 2.066-.067 3.08-.186 1.822-.216 3.534-.71 5.295-1.199.85-.236 1.731-.464 2.621-.446 1.007.02 1.982.41 2.968.59.77.14 1.553.227 2.295.49.976.345 1.747.887 2.803.931 1.82.077 3.7.079 5.506-.144 1.856-.23 3.303-.989 5.055-1.517 1.325-.4 2.916-1.004 3.896-2.004.48-.491.874-1.083 1.328-1.602.269-.307.533-.713.828-.988.807-.753 1.567-.664 2.553-.743.614-.048 1.278-.14 1.771-.545.6-.493.605-1.23.931-1.889.444-.896 1.11-2.03 2.287-1.286.727.46 1.046 1.51 1.737 2.05.574.448 1.27.506 1.907.829.846.43 1.546 1.137 2.534 1.245.73.08 1.349-.193 2.034-.39l.446-.158c.726-.341.97-.302.733.118.06.112-.016.603.044.78.082.245.32.495.606.468.992-.092 1.436.607 2.07 1.281.651.69.917 1.86 1.7 2.39.542.367 1.052.212 1.616-.016.366-.147.71-.307 1.015-.56.338-.28.712-1.114 1.196-.816.546.336.787 1.964.914 2.503.268 1.139.602 2.198.768 3.353.068.475.135.825.587 1.079.31.173.517.125.84.166.848.108 1.365.29 2.04.896 1.566 1.404 2.994 3.475 4.156 5.207 1.08 1.61 3.185 1.907 5.019 1.874 1.058-.019 2.08-.089 3.122-.278.79-.144 1.582-.358 2.388-.394.688-.03 1.377.085 2.066.037.949-.067 1.807-.429 2.699-.724 1.196-.397 2.354-.726 3.475-1.312 1.121-.585 2.197-.916 3.394-1.283 1.108-.34 1.91-1.105 2.922-1.62.915-.464 1.788-.782 2.589-1.451.877-.734 1.6-1.62 2.289-2.529.632-.833 1.262-1.672 1.824-2.555.584-.918 1.42-1.576 2.058-2.447 1.304-1.777 2.907-3.388 4.002-5.314.559-.982.821-2.152 1.572-3.008.668-.762 1.494-1.348 2.138-2.123.577-.694.868-1.284 1.906-1.158.526.063 1 .324 1.524.407.575.091 1.15.07 1.717.215.631.16 1.224.446 1.857.603 2.477.614 4.97 1.185 7.45 1.793 1.01.248 1.983.668 3 .873 1.032.207 2.07.088 3.1-.08 1.056-.172 2.111-.367 3.166-.559 1.214-.22 2.177-.78 3.328-1.142 1.264-.397 2.86-.206 4.19-.33 1.213-.112 2.373-.258 3.538-.628 4.64-1.472 9.298-2.426 14.167-2.697 2.327-.13 4.694-.393 6.9-1.169 1.127-.395 2.383-.268 3.57-.26 1.573.009 3.05.319 4.554.756 2.292.667 4.438 1.582 6.855 1.494 2.399-.088 4.89-.27 7.231-.816 1.116-.26 2.202-.642 3.308-.94 1.245-.334 2.33-.908 3.62-1.007 2.323-.178 4.639-.1 6.95-.469 2.4-.382 4.84.144 7.23-.308 2.654-.503 5.413-.32 8.111-.31 1.081.004 2.184.088 3.246-.158 1.205-.28 2.208-.864 3.468-.988 1.098-.108 2.092-.343 3.158-.627 1.5-.4 3.032-.445 4.575-.463 2.374-.029 4.766.411 7.154.46 2.067.044 3.503-.945 5.051-2.18 1.705-1.36 3.037-2.967 4.596-4.443 1.657-1.568 3.095-3.228 4.305-5.17.582-.934 1.034-1.969 1.518-2.956.261-.534.518-1.184.21-1.76Z"/>
    <rect width="1920" height="1080" fill="none"/>
  </g>
</svg>
