<?xml version="1.0" encoding="UTF-8"?>
<svg id="Vrstva_1" data-name="Vrstva 1" xmlns="http://www.w3.org/2000/svg" viewBox="0 0 1920 1080">
  <g id="_01-sun" data-name="01-sun">
    <path d="M953.46919,455.53512c5.74461-.66453,10.68167,1.39964,16.00177,1.63472,2.38743.10549,4.46014-1.17842,7.20136-1.01101,5.45396.33308,14.13513,3.18008,19.89106,4.4783,36.40991,8.21208,66.78495,32.71273,83.65501,65.91791,32.79687,64.55379,1.3234,147.56693-64.63004,175.80675-16.35045,7.00091-35.7169,10.6388-53.29472,9.69531-3.97969-.21361-7.6744.84551-10.86494.87595-2.74043.02614-7.22567-3.13267-9.91775-3.51952-4.72137-.67845-11.70697-.17261-16.02916-1.09064-2.9952-.63618-8.07799-4.40207-11.42462-5.69518-3.83397-1.48141-9.38675-2.04969-12.95723-4.16256-2.67145-1.58087-5.1715-5.42845-7.838-7.47971-5.10465-3.92688-13.62887-6.62505-17.99748-10.83585-3.20915-3.09322-5.98824-9.0775-8.97358-12.65142-3.77697-4.52163-10.23506-8.9605-13.3805-13.65075-3.29274-4.90988-4.6615-12.5789-7.16919-18.05997-3.14595-6.87609-10.08942-14.94096-10.92449-22.41405-.54245-4.85442-.35121-10.19917-1.02105-15.1977-1.0927-8.15402-4.16045-15.95559-2.44311-24.1873.99438-4.76638,3.10957-9.90048,4.07988-14.83984,1.31799-6.70923,1.16021-14.4059,3.65798-20.67015,1.61108-4.0405,4.70177-7.58522,6.64761-11.37323,2.61537-5.0914,5.47785-13.57474,8.42754-17.70267,3.94292-5.5179,14.46983-15.19845,19.7617-20.78518,6.74627-7.12217,13.65749-8.67921,21.48715-13.65347,3.36606-2.1385,7.16808-6.27159,10.25809-7.76274,3.95521-1.90867,10.40708-2.32879,14.93042-3.99146,3.13602-1.15272,7.56251-4.45195,10.28493-5.03277,2.76459-.58982,5.90753.09175,8.77978-.23064,4.57571-.51358,9.2773-1.88778,13.80157-2.41114Z" fill="#ffb5e1"/>
    <rect width="1920" height="1080" fill="none"/>
  </g>
</svg>
