<?xml version="1.0" encoding="UTF-8"?>
<svg xmlns="http://www.w3.org/2000/svg" viewBox="0 0 1920 1080">
  <g id="_06-bird-white" data-name="06-bird-white">
    <path d="M1111.70778,769.34097l-11.99432,34.19688c-2.83547.41572-4.28924,3.71138-5.06445,4.20457-2.67895,1.70436-22.23331-9.71807-27.3945-9.47537-8.98707.42261-22.91144,13.43388-31.04926,17.82493l-35.5994-52.19618c-1.02083-2.20669-10.34144-5.75478-9.82783-8.10549.6476-2.96393,6.06355-2.95876,8.22018-1.26617l37.22023,23.68562,13.96472-30.91281,24.83031,14.84153c4.2999-2.10132,28.20777-24.22672,30.09348-23.86442,2.79109.53625-.18454,4.0464-.85333,5.12266-4.90904,7.89993-13.56538,14.56641-16.44073,23.11514,2.26054,7.88882,7.11795-1.15462,11.12061-3.46317,3.16738-1.8268,14.74621-6.40631,17.92333-5.56757.86658.22877,14.99684,7.18328,16.08552,7.9116,1.81491,1.21416,4.23438,3.6198,1.67524,5.38941-1.7131,1.18458-21.86748-2.3336-22.90979-1.44116Z" fill="#9c96e6"/>
    <rect width="1920" height="1080" fill="none"/>
  </g>
</svg>
