<?xml version="1.0" encoding="UTF-8"?>
<svg id="Vrstva_1" data-name="Vrstva 1" xmlns="http://www.w3.org/2000/svg" viewBox="0 0 1920 1080">
  <g id="_04-box-right" data-name="04-box-right">
    <path d="M1286.45333,311.90672l-37.26009-3.71651c-23.25389-1.24233-47.04637-7.07824-70.31447-8.03184-10.00704-.41012-22.31862,2.20831-31.17981,6.71964l-16.19664,179.34152c9.17218-.8133,18.24382,3.90346,26.7459,4.85422,1.65845.18546,3.149-.77792,4.38195-.68043,50.28332,3.97585,100.23931,8.54309,150.3869,13.34079,7.19415.68828,18.08181,3.61266,24.36851,3.63015,1.01695.00283,2.07032.00747,2.73087-.90479l17.52496-185.85379c-.41515-1.71883-6.57934-1.58955-8.14765-1.50359l-63.04042-7.19537Z" fill="#6200ff"/>
    <rect width="1920" height="1080" fill="none"/>
  </g>
</svg>
