<?xml version="1.0" encoding="UTF-8"?>
<svg xmlns="http://www.w3.org/2000/svg" viewBox="0 0 1920 1080">
  <g id="_04-box-right" data-name="04-box-right">
    <path d="M1322.30659,286.85601l-41.35224-4.12468c-25.80778-1.37877-52.21332-7.85562-78.03687-8.91395-11.10607-.45516-24.7698,2.45084-34.60418,7.45764l-17.97546,199.03798c10.17953-.90263,20.24748,4.33216,29.68331,5.38735,1.84059.20583,3.49484-.86336,4.8632-.75516,55.80577,4.4125,111.24825,9.48134,166.90338,14.80597,7.98426.76387,20.06767,4.00942,27.04482,4.02884,1.12864.00314,2.29769.00829,3.03079-1.00416l19.44967-206.26548c-.46074-1.9076-7.30193-1.76413-9.04248-1.66872l-69.96394-7.98561Z" fill="#6200ff"/>
    <rect width="1920" height="1080" fill="none"/>
  </g>
</svg>
