<?xml version="1.0" encoding="UTF-8"?>
<svg xmlns="http://www.w3.org/2000/svg" viewBox="0 0 1920 1080">
  <g id="_13-cloud-left" data-name="13-cloud-left">
    <path d="M349.68292,364.06586c-.27496-.51599-.84137-.69379-1.37915-.771-.47015-.0675-.88074-.02252-1.34314-.20752-.40015-.1601-.7298-.45471-1.15582-.57385-.31116-.08698-.64435-.03882-.94873-.1178-.3634-.09436-.68872-.35114-1.0528-.46442-1.28564-.40021-2.4599-.70782-3.67712-1.34247-.80042-.41736-1.367-.93335-2.27747-1.11029-1.04047-.20215-2.14746-.3595-3.20667-.37433-1.09113-.01532-2.34888-.20319-3.42169-.44781-1.14319-.26074-2.47791-.37482-3.57428-.75714-.875-.30518-1.74591-1.56488-2.31494-2.28668-.87531-1.11029-1.29895-2.4101-1.55396-3.78503-.23157-1.2486-.33838-2.51685-.55499-3.76807-.15204-.87848-.20593-1.96008-.62866-2.75385-.27155-.50995-1.1308-.41968-1.25165.16364-.31909,1.53998-.4585,3.10229-.96442,4.59875-.25757.76172-.43353,1.53271-1.10968,1.99622-.6142.42096-1.45581.58539-2.16162.64783-2.77423.24554-5.87292-.73138-8.47675.73254-1.06177.59698-1.52771,2.40906-2.67761,2.6214-1.54163.28467-3.04602-1.16663-4.16309-1.99359-1.24591-.92224-2.56854-1.74719-3.94025-2.46875-1.45093-.76324-3.00751-1.34125-4.37775-2.2525-.89429-.59479-1.60382-1.48395-2.70502-1.68524-1.64478-.30072-3.81512.36139-5.20984-.84583-.84186-.7287-1.00726-1.85272-2.07825-2.31494-.37122-.16022-.51251-.14575-.80609-.46783-.61157-.67102-1.12964-1.46045-1.67438-2.18555-1.79419-2.38812-3.48566-4.75848-5.09424-7.25439-.61627-.95624-1.85974-1.7179-2.78674-2.38019-1.34503-.96094-2.84143-1.42743-4.28467-2.18982-1.24561-.65796-2.40228-1.40094-3.68024-2.005-.57227-.27057-1.03253-.43872-1.34406-.96863-.40839-.6947-.52899-1.75385-.85559-2.52118-.56873-1.33606-1.32886-2.5072-2.18195-3.67426-.3822-.52289-.77502-1.0423-1.06641-1.62341-.56335-1.12323-.34009-1.9856-.44244-3.14807-.10175-1.15533-.76178-2.10913-1.23022-3.13037-.29242-.63739-.36768-1.27295-.52222-1.9444-.14612-.63501-.5426-1.03973-.8678-1.59888-.66705-1.14691-1.2962-2.20575-1.82233-3.41925-.57941-1.33649-.83215-2.84692-1.50299-4.13483-.52863-1.01489-1.43085-1.79681-2.32428-2.48505-1.2254-.94385-2.65717-1.23395-4.03772-1.85565-1.151-.51831-2.29956-.86169-3.56146-.99011-.72968-.07422-1.46234-.02509-2.19012-.10089-1.11029-.11578-1.78064-.66858-2.62585-1.31781-1.14685-.88098-2.32526-1.77509-3.64911-2.37506-1.38721-.6286-2.78577-.59833-4.2782-.61945-1.57501-.02228-3.1507-.10059-4.72455-.16284-1.63129-.06451-3.1969-.6051-4.80316-.67041-1.32947-.05408-2.53369.72339-3.59149,1.43781-.81903.55322-1.55957,1.31799-2.56812,1.48938-.62073.10547-1.28546.05518-1.91846.15802-1.41656.2301-2.55048.80487-3.77966,1.51556-.78424.45349-1.60327.85699-2.36981,1.34045-.45618.28766-.92596.75421-1.4892.78912-.58777.0365-1.22736-.2569-1.86792-.20703-.53229.04144-1.05487.16388-1.58099.24756-1.69714.27002-3.40424.45959-5.09637.76587-1.39288.25214-2.8324.50989-4.18665.92896-1.38696.4292-2.26263,1.64746-3.41931,2.46625-1.25226.88641-2.66742,1.20825-3.98895,1.9422-.6781.37665-1.21631,1.02081-1.9903,1.21991-.70642.18176-1.50604.10303-2.22607.23334-1.21796.22046-1.56897.82611-2.36096,1.68024-1.02478,1.10522-2.35388,1.87469-3.53748,2.78827-1.18243.91266-1.74323,1.90875-2.53644,3.13672-.93439,1.44659-2.55176,2.45496-3.82886,3.57947-.92505.81445-2.09454,1.62537-2.8576,2.59619-.84668,1.07721-1.14636,2.73041-1.51282,4.02655-.42059,1.48773-.59692,3.01007-1.81866,4.10315-1.03149.92285-2.34509,1.40308-3.23291,2.54596-.13196.16992-.302.65466-.45697.88574-.03021-.01404-.0788-.02789-.16449-.04047-.22913-.03369-.43188-.18024-.67499-.19733-1.15253-.08112-2.72498.69336-3.79779,1.0462-1.42798.46967-2.80902,1.0661-4.20258,1.62671-1.01904.40991-2.09741.85645-2.77228,1.7691-.27893.37726-.37213.76318-.55591,1.17487-.46851,1.04962-.87018,1.38391-1.78247,2.04352-1.17517.84979-2.21552,1.62732-3.30328,2.59344-.93945.83441-2.14996,1.29846-3.0589,2.16864-.18848.18042-.38196.59906-.5874.72125-.40631.24164-1.28687.20746-1.76868.39734-.95392.37598-1.80658,1.11237-2.14191,2.10681-.25299.75018-.36493,1.4024-.87384,2.05603-.52002.66785-1.19275,1.10883-1.79181,1.69116-.51605.50165-.88794.99847-1.59009,1.25702-.63995.23566-1.31683.36237-1.95862.59827-1.02344.37622-2.04852.8952-2.70038,1.80225-.36414.50671-.59772.92523-1.10492,1.3089-.36554.27649-.76208.48657-1.15582.7168-1.24115.72577-2.36035,1.60138-3.81384,1.64801-1.64606.05286-3.38544.18311-4.91382-.44641-1.37756-.56738-2.68854-.90753-3.91791-1.78754-.8432-.60364-1.28497-1.32782-2.3739-1.43195-1.29572-.12384-2.62.19189-3.78284.74878-1.26263.60474-2.13281,1.70502-3.34253,2.38196-1.33356.74622-2.90442,1.2901-4.1015,2.25769-.84888.68616-1.14673,1.74048-2.10229,2.34607-.5932.37598-1.18359.7934-1.78015,1.1601-.75769.46576-1.65088.54767-2.47607.8457-2.41699.87274-4.8855,2.2489-6.5437,4.25201-.47125.56927-.79193,1.25208-1.27008,1.81079-.38947.45508-.91553.69537-1.36401,1.0683-.61206.50897-1.08795,1.06415-1.74854,1.521-.33795.2337-.69849.43121-.95679.75854-.42017.53253-.36621,1.10968-.70807,1.69104-.23572.40082-.53955.81873-.79468,1.21161-.79242,1.22021-1.62439,2.57843-2.76764,3.50378-.94672.76642-2.66937.87225-3.40204,1.82318-.24902.32318-.15625.61725-.26392.96796-.23975.78101-.85461,1.0144-1.49426,1.45062-.90881.61975-1.10394,1.61572-1.89569,2.31818-1.20007,1.06476-3.69543,1.10437-5.25763,1.14575-.33978.00897-.49518.29193-.47626.55499-.22095.28906-.25012.74799.14832,1.0011.64117.40735,1.33405.10028,1.95721.62427.43243.36365.57117.95331,1.09192,1.22528,1.43829.75104,3.38922-.32599,4.87244.41772.8031.40265.80042.96503,1.3125,1.58539.38934.47174.83307.57959,1.39679.74384.77002.2243,1.39166.63995,2.11353.98547.74988.35883,1.35419.35333,2.1629.50012.70929.12872,1.3479.51685,2.08551.51855.93091.00214,1.76752-.51422,2.68811-.60596.77155-.07684,1.60309-.04932,2.3761-.01105.39832.01978.94281-.01208,1.29211.21686.52246.34247.70172,1.06726,1.00848,1.57092.7641,1.25476,2.04956,1.85101,3.24805,2.6098,1.03497.65533,1.61237,2.28894,2.84723,2.57025.51825.11804.94263-.13434,1.43976-.22192.99823-.17584,2.06708-.06635,3.08044-.1861,1.82251-.21545,3.53387-.71045,5.29541-1.19855.85059-.23566,1.73108-.46405,2.62109-.44659,1.00702.01971,1.98181.41058,2.96808.59058.7691.14032,1.55243.22656,2.29425.48914.9765.34564,1.74695.88727,2.80322.93188,1.81934.07678,3.69995.07867,5.50635-.14429,1.85596-.229,3.30261-.98853,5.05438-1.51697,1.32513-.39972,2.91675-1.00415,3.89594-2.00385.48114-.49121.87469-1.0827,1.32843-1.60162.26874-.30731.53296-.71326.82812-.98877.80652-.75269,1.5672-.66412,2.55255-.74225.61444-.04871,1.27795-.13959,1.77142-.54517.60065-.49353.6048-1.23077.93109-1.88916.44427-.89636,1.1098-2.03058,2.28668-1.28644.72675.45947,1.04596,1.50995,1.73749,2.04987.57379.448,1.27014.50653,1.90643.82947.84625.4295,1.54596,1.1366,2.53442,1.24481.72937.07983,1.34857-.19275,2.03333-.38983.1488-.05255.29755-.1051.44629-.15765.72632-.34131.97058-.302.73279.11792.06018.11139-.01569.60272.04413.78027.0824.24481.32092.49463.60657.4679.9917-.09265,1.43524.60651,2.07031,1.28076.65039.69061.91614,1.85974,1.69855,2.38916.54303.36743,1.0531.21252,1.61652-.01483.36621-.14783.71051-.3075,1.01575-.56049.33728-.27954.71161-1.11414,1.19531-.81616.54584.3363.78729,1.96411.91431,2.50317.26843,1.13904.60217,2.19775.76813,3.35333.06818.47467.13507.82452.58661,1.07819.30951.17389.5174.12567.84113.16669.8468.1073,1.36426.29004,2.03967.89581,1.56525,1.40387,2.99298,3.4751,4.15497,5.2066,1.08051,1.60999,3.18573,1.90771,5.0191,1.87451,1.05841-.01917,2.0802-.08905,3.12207-.27856.78998-.14374,1.58228-.35773,2.38788-.39331.68866-.0304,1.37787.08453,2.06677.03632.94824-.06635,1.80615-.4281,2.69824-.724,1.19611-.39673,2.35431-.72589,3.47571-1.3114,1.12085-.58521,2.19659-.91583,3.39362-1.28308,1.10797-.33997,1.90918-1.10535,2.92188-1.61938.91516-.46448,1.78827-.78223,2.58887-1.45203.87756-.73419,1.59961-1.62036,2.28882-2.5282.63275-.8335,1.26294-1.67206,1.8244-2.55524.58392-.9187,1.41931-1.57635,2.05811-2.44678,1.30432-1.77747,2.90729-3.38806,4.00208-5.31421.55853-.9826.82104-2.15216,1.57184-3.00861.66815-.76215,1.49408-1.34766,2.13782-2.1225.5769-.69434.86853-1.28412,1.90619-1.15845.52606.06372.99988.32465,1.5238.40741.57526.09088,1.15015.07062,1.71771.21503.63092.16052,1.22327.44562,1.85681.60278,2.47632.61438,4.96912,1.18536,7.44891,1.79352,1.01025.24774,1.9834.66742,3.00073.87213,1.03186.2077,2.07007.08881,3.10101-.07953,1.05469-.17218,2.11041-.36731,3.16528-.5589,1.21393-.22052,2.17639-.7804,3.32794-1.14203,1.26355-.39679,2.85938-.2066,4.19073-.32977,1.2124-.11212,2.37262-.25861,3.53668-.62787,4.64093-1.47217,9.29828-2.42657,14.16785-2.69794,2.32678-.12964,4.6933-.39301,6.89984-1.16827,1.12628-.39575,2.383-.26843,3.56982-.26105,1.57251.00977,3.04974.31976,4.55359.75708,2.29254.66669,4.43866,1.58197,6.85577,1.49371,2.39819-.08759,4.8891-.26935,7.23071-.8158,1.11591-.26044,2.20227-.64221,3.30823-.93958,1.24475-.33466,2.32947-.90875,3.61896-1.00763,2.3233-.1781,4.63928-.10089,6.95068-.46875,2.40076-.38208,4.8399.14349,7.22931-.30865,2.65509-.50238,5.41339-.31873,8.11169-.3092,1.0813.00385,2.18402.08759,3.24603-.15839,1.20483-.27911,2.20831-.86377,3.46759-.98755,1.09882-.10797,2.09204-.34338,3.1582-.62769,1.50067-.40021,3.03223-.44434,4.57513-.46289,2.37378-.02863,4.76624.4115,7.15436.46106,2.06689.04291,3.50305-.94641,5.05084-2.18091,1.7052-1.35999,3.03693-2.96729,4.59625-4.44287,1.65704-1.56812,3.09454-3.22784,4.30432-5.17029.58179-.93408,1.03412-1.96881,1.51807-2.95587.26166-.53375.51813-1.18384.21106-1.76019Z" fill="#f6ff00"/>
    <rect width="1920" height="1080" fill="none"/>
  </g>
</svg>
