<?xml version="1.0" encoding="UTF-8"?>
<svg id="Vrstva_1" data-name="Vrstva 1" xmlns="http://www.w3.org/2000/svg" viewBox="0 0 1920 1080">
  <g id="_11-flowers" data-name="11-flowers">
    <path d="M617.67298,848.25016c1.76957,1.59799,10.89997-9.11429,13.99969-9.02383,2.42.07062,3.95812,5.87483,6.2681,7.20201l11.7188-15.29792c2.68858,4.53996,6.46534,8.81204,6.76054,14.41253l9.90143-6.30194c.1676,2.92048,1.26333,5.22783.0074,8.09961l4.49411-5.40015-.90555,25.66909c-1.84025,1.70089-4.99366,9.50123-.44636,9.48502,1.20531-.00429,6.20354-19.74305,7.87428-22.78394,1.56302-2.84484,5.1099-7.80999,8.3407-5.13983,3.82389,3.16033,8.86536,13.84561,12.68217,17.04904.47178.39596,7.59373,4.59004,8.05742,4.59139,2.67419.00778,9.93377-10.88052,12.61765-10.87991,2.55676.00058,7.67,8.4461,9.78912,8.07717l12.46579-14.16359c1.36458-.74934,3.72205.36651,5.05921-.3715.99758-.55059,3.95502-8.96447,7.7171-7.87757,4.07353,1.17687,10.13606,32.47686,11.38789,37.79164l6.32472-8.52864c1.56878-1.9909,3.82693-3.49471,5.41996-5.42669,1.40883-1.70859-.24035-3.99418,3.56142-3.15507l-8.10695,34.70204c-.16701,1.24025-.01397,1.72381,1.33324,1.32411,1.31964-.39152,10.04046-6.74993,10.35658-3.15014.18476,2.10395-8.46899,16.27358-9.63955,20.98432-.37393,1.50483-1.61958,9.46321-1.14011,10.11492,5.61209-3.36708,8.20891-1.11035,1.83768,2.29752-3.08757,1.6515-6.41509,1.82108-9.38988,3.22618-5.48639,2.59142-11.38794,7.09627-16.98127,9.15196-9.58537,3.52286-46.73646,9.76157-56.98716,9.68923-12.3077-.08686-24.8828-5.86572-37.08235-7.14682-3.70399-.38896-11.9455,1.24437-13.85184.35418-1.8621-.86953-9.09825-7.24456-10.68008-9.16759-2.33518-2.83887-6.47333-10.08837-7.15661-13.57472-1.64733-8.40532,3.29994-4.32787,8.42403-3.01238,2.39183.61405,16.65977,4.2084,17.4462,3.6482,3.08253-2.19579-3.0839-12.09211-3.23316-15.87232-.15304-3.87596,2.32212-9.11255,3.28676-12.92679-11.82478-.46415-23.81142.57774-35.62945.03238-3.19515-.14745-6.35985-1.49517-9.83857-1.79606-9.96122-.86159-17.71271,1.84622-25.70392-6.80616l8.08905-.4567c-1.17661-2.8375-.56211-5.74932-.93942-8.50647-.26131-1.90945-1.71881-2.91974-1.58093-5.20482.31147-5.16195,6.80711-15.99082,8.44214-22.26718.76484-2.93596.04565-6.16854,1.30193-9.06579,1.55936-.00299.98877,3.943.93363,4.99297-.06896,1.31336-2.27203,11.7614,2.25109,7.65832,4.34479-3.94131,7.43995-24.43345,9.36765-25.77665,1.24553-.86787,2.21434-.53899,3.20192.50822,3.07386,3.25944,7.01856,13.56476,8.57374,18.01912Z" fill="red"/>
    <rect width="1920" height="1080" fill="none"/>
  </g>
</svg>
