<?xml version="1.0" encoding="UTF-8"?>
<svg xmlns="http://www.w3.org/2000/svg" viewBox="0 0 1920 1080">
  <g id="_11-flowers" data-name="11-flowers">
    <path d="M580.07637,882.10423c1.96392,1.77349,12.09708-10.11528,15.53723-10.01489,2.68578.07838,4.39283,6.52005,6.95651,7.99299l13.00584-16.97804c2.98386,5.03856,7.1754,9.77983,7.50302,15.99541l10.98887-6.99406c.18601,3.24123,1.40208,5.80199.00822,8.98916l4.98768-5.99323-1.005,28.48824c-2.04236,1.88769-5.54209,10.54471-.49538,10.52673,1.33768-.00477,6.88485-21.91136,8.73908-25.28622,1.73469-3.15728,5.6711-8.66773,9.25673-5.70432,4.24385,3.50741,9.83901,15.36622,14.075,18.92148.52359.43945,8.42773,5.09415,8.94234,5.09565,2.96789.00864,11.02476-12.07549,14.0034-12.07482,2.83756.00065,8.51237,9.37371,10.86422,8.96425l13.83487-15.71912c1.51445-.83164,4.13083.40676,5.61484-.4123,1.10714-.61106,4.38939-9.949,8.56464-8.74274,4.52091,1.30613,11.24927,36.04368,12.63858,41.94217l7.01934-9.46531c1.74107-2.20956,4.24723-3.87852,6.01522-6.02269,1.56356-1.89624-.26674-4.43285,3.95256-3.50158l-8.9973,38.51324c-.18535,1.37646-.01551,1.91312,1.47967,1.46953,1.46457-.43452,11.14317-7.49125,11.49401-3.49611.20506,2.33502-9.39911,18.06085-10.69823,23.28895-.415,1.6701-1.79745,10.50252-1.26532,11.22581,6.22845-3.73687,9.11046-1.2323,2.03951,2.54985-3.42667,1.83287-7.11963,2.02108-10.42113,3.5805-6.08894,2.87603-12.63864,7.87563-18.84626,10.15709-10.63809,3.90977-51.86937,10.83365-63.24587,10.75337-13.65941-.0964-27.6156-6.50994-41.15498-7.93174-4.11079-.43168-13.25744,1.38104-15.37314.39308-2.06661-.96503-10.09748-8.04021-11.85303-10.17443-2.59165-3.15066-7.18427-11.19635-7.94259-15.06559-1.82825-9.32845,3.66237-4.80319,9.34921-3.34322,2.65451.68149,18.48945,4.6706,19.36226,4.04887,3.42107-2.43695-3.4226-13.42014-3.58825-17.61552-.16984-4.30164,2.57715-10.11335,3.64773-14.34649-13.12346-.51513-26.42655.64119-39.54252.03593-3.54607-.16364-7.05833-1.65938-10.91911-1.99332-11.05523-.95622-19.65803,2.04899-28.52689-7.55366l8.97745-.50686c-1.30583-3.14913-.62384-6.38075-1.0426-9.44071-.29001-2.11916-1.90758-3.24041-1.75456-5.77644.34568-5.72887,7.55471-17.74704,9.36931-24.71271.84884-3.25841.05066-6.84601,1.44492-10.06146,1.73062-.00332,1.09736,4.37605,1.03617,5.54133-.07654,1.4576-2.52156,13.05311,2.49832,8.49941,4.82196-4.37417,8.25706-27.1169,10.39647-28.60761,1.38233-.96319,2.45753-.59818,3.55358.56404,3.41146,3.61742,7.78939,15.05453,9.51537,19.9981Z" fill="red"/>
    <rect width="1920" height="1080" fill="none"/>
  </g>
</svg>
