<?xml version="1.0" encoding="UTF-8"?>
<svg id="Vrstva_1" data-name="Vrstva 1" xmlns="http://www.w3.org/2000/svg" viewBox="0 0 1920 1080">
  <g id="_06-bird-white" data-name="06-bird-white">
    <path d="M1096.69503,746.64577l-10.80738,30.81281c-2.55488.37458-3.86478,3.34411-4.56328,3.78849-2.41385,1.5357-20.03314-8.75639-24.68359-8.53771-8.09772.38079-20.64416,12.10448-27.97668,16.061l-32.07654-47.03093c-.91981-1.98832-9.31807-5.1853-8.85528-7.30338.58352-2.67062,5.46351-2.66597,7.40672-1.14088l33.53698,21.34173,12.5828-27.85373,22.37315,13.37284c3.87439-1.89337,25.41638-21.82929,27.11548-21.50284,2.51489.48318-.16628,3.64598-.76889,4.61573-4.42325,7.11817-12.22298,13.12494-14.81379,20.8277,2.03684,7.10815,6.41357-1.04036,10.02014-3.12046,2.85394-1.64602,13.28695-5.77235,16.14966-5.01661.78082.20613,13.51278,6.47244,14.49372,7.12868,1.63531,1.09401,3.81535,3.26159,1.50946,4.85608-1.54358,1.06736-19.70351-2.10267-20.64267-1.29854Z" fill="#9c96e6"/>
    <rect width="1920" height="1080" fill="none"/>
  </g>
</svg>
